<svg width="532" height="338" viewBox="0 0 532 338" fill="none" xmlns="http://www.w3.org/2000/svg">
<g filter="url(#filter0_f_47_9)">
<path d="M522 168.898C522 188.48 409.56 203.982 265.898 203.982C122.441 203.982 10.0005 188.684 10.0005 168.898C10.0005 149.316 122.441 133.814 266.103 133.814C409.56 133.814 522 149.316 522 168.898ZM11.633 168.898C11.633 187.052 128.154 202.35 265.898 202.35C403.847 202.35 520.164 187.052 520.164 168.898C520.164 164.818 513.022 154.416 446.088 145.441C397.929 138.913 333.852 135.446 265.694 135.446C197.537 135.446 133.46 138.913 85.3006 145.441C18.9794 154.62 11.633 164.818 11.633 168.898Z" fill="#1057DF"/>
<path d="M507.512 168.898C507.512 192.967 401.398 211.733 266.103 211.733C130.807 211.733 24.6932 192.967 24.6932 168.898C24.6932 144.829 130.807 126.063 266.103 126.063C401.398 126.063 507.512 144.829 507.512 168.898ZM26.3257 168.898C26.3257 179.505 51.8339 190.112 96.1161 197.659C141.419 205.614 201.822 209.897 266.103 209.897C330.383 209.897 390.582 205.614 436.089 197.659C480.371 189.908 505.879 179.301 505.879 168.898C505.879 158.291 480.371 147.684 436.089 139.933C390.786 131.978 330.383 127.695 266.103 127.695C201.822 127.695 141.623 131.978 96.1161 139.933C51.6298 147.888 26.3257 158.291 26.3257 168.898Z" fill="#1057DF"/>
<path d="M492.819 168.898C492.819 182.564 469.148 195.415 425.886 204.798C383.236 214.181 326.302 219.484 265.898 219.484C205.495 219.484 148.765 214.385 105.911 204.798C62.8534 195.211 38.9778 182.564 38.9778 168.898C38.9778 155.232 62.6493 142.381 105.911 132.998C148.561 123.615 205.495 118.312 265.898 118.312C326.302 118.312 383.032 123.411 425.886 132.998C469.148 142.381 492.819 155.232 492.819 168.898ZM40.8144 168.898C40.8144 195.823 141.827 217.852 265.898 217.852C389.97 217.852 490.983 195.823 490.983 168.898C490.983 141.973 389.97 119.944 265.898 119.944C141.827 120.148 40.8144 141.973 40.8144 168.898Z" fill="#1057DF"/>
<path d="M478.126 168.898C478.126 184.604 455.883 199.291 415.682 210.305C375.686 221.116 322.629 227.235 266.103 227.235C209.576 227.235 156.519 221.32 116.523 210.305C76.1177 199.291 54.0786 184.604 54.0786 168.898C54.0786 153.192 76.3217 138.505 116.523 127.491C156.519 116.68 209.576 110.561 266.103 110.561C322.629 110.561 375.686 116.476 415.682 127.491C456.087 138.505 478.126 153.192 478.126 168.898ZM55.5071 168.898C55.5071 200.106 149.989 225.604 266.103 225.604C382.216 225.604 476.698 200.106 476.698 168.898C476.698 137.69 382.216 112.192 266.103 112.192C149.989 112.396 55.5071 137.69 55.5071 168.898Z" fill="#1057DF"/>
<path d="M463.638 168.898C463.638 205.41 375.073 234.987 266.103 234.987C157.132 234.987 68.3632 205.41 68.3632 168.898C68.3632 132.386 156.928 102.809 265.898 102.809C374.869 102.809 463.638 132.59 463.638 168.898ZM70.1998 168.898C70.1998 204.39 158.152 233.355 266.103 233.355C374.053 233.355 462.005 204.39 462.005 168.898C462.005 133.406 374.053 104.441 266.103 104.441C157.948 104.645 70.1998 133.406 70.1998 168.898Z" fill="#1057DF"/>
<path d="M448.945 168.898C448.945 209.693 366.911 242.738 265.898 242.738C165.09 242.738 82.8518 209.693 82.8518 168.898C82.8518 128.307 164.886 95.0584 265.898 95.0584C366.911 95.0584 448.945 128.307 448.945 168.898ZM84.6884 168.898C84.6884 208.674 166.111 241.106 265.898 241.106C365.686 241.106 447.109 208.674 447.109 168.898C447.109 129.123 365.686 96.6902 265.898 96.6902C166.111 96.6902 84.6884 129.123 84.6884 168.898Z" fill="#1057DF"/>
<path d="M434.456 168.898C434.456 213.773 358.952 250.489 266.103 250.489C173.253 250.489 97.7486 213.977 97.7486 168.898C97.7486 123.819 173.253 87.3073 266.103 87.3073C358.952 87.5112 434.456 124.023 434.456 168.898ZM99.3811 168.898C99.3811 212.957 174.069 248.653 266.103 248.653C357.932 248.653 432.824 212.753 432.824 168.898C432.824 124.839 358.136 89.143 266.103 89.143C174.069 89.143 99.3811 124.839 99.3811 168.898Z" fill="#1057DF"/>
<path d="M419.764 168.898C419.764 218.056 350.79 258.24 266.103 258.24C181.415 258.24 112.441 218.26 112.441 168.898C112.441 119.74 181.415 79.5561 266.103 79.5561C350.79 79.5561 419.764 119.74 419.764 168.898ZM113.87 168.898C113.87 217.241 182.028 256.404 265.898 256.404C349.769 256.404 417.927 217.037 417.927 168.898C417.927 120.759 349.769 81.3919 266.103 81.3919C182.232 81.3919 113.87 120.555 113.87 168.898Z" fill="#1057DF"/>
<path d="M405.071 168.898C405.071 222.34 342.627 265.991 265.898 265.991C189.17 265.991 126.726 222.544 126.726 168.898C126.726 115.456 189.17 71.805 265.898 71.805C342.831 72.009 405.071 115.456 405.071 168.898ZM128.562 168.898C128.562 221.524 190.19 264.155 266.103 264.155C341.811 264.155 403.643 221.32 403.643 168.898C403.643 116.272 342.015 73.6408 266.103 73.6408C190.19 73.6408 128.562 116.476 128.562 168.898Z" fill="#1057DF"/>
<path d="M390.582 168.898C390.582 226.624 334.669 273.742 266.103 273.742C197.333 273.742 141.623 226.827 141.623 168.898C141.623 111.173 197.537 64.0539 266.103 64.0539C334.669 64.2579 390.582 111.173 390.582 168.898ZM143.255 168.898C143.255 225.808 198.353 271.906 266.103 271.906C333.852 271.906 388.95 225.604 388.95 168.898C388.95 112.192 333.852 65.8897 266.103 65.8897C198.353 65.8897 143.255 112.192 143.255 168.898Z" fill="#1057DF"/>
<path d="M375.89 168.898C375.89 230.907 326.506 281.493 265.898 281.493C205.291 281.493 155.907 231.111 155.907 168.898C155.907 106.685 205.291 56.3028 265.898 56.3028C326.71 56.5067 375.89 106.889 375.89 168.898ZM157.744 168.898C157.744 230.091 206.311 279.657 265.898 279.657C325.486 279.657 374.053 229.887 374.053 168.898C374.053 107.705 325.486 58.1386 265.898 58.1386C206.311 58.1386 157.744 107.909 157.744 168.898Z" fill="#1057DF"/>
<path d="M361.401 168.898C361.401 235.191 318.547 289.244 266.103 289.244C213.658 289.244 170.804 235.394 170.804 168.898C170.804 102.606 213.658 48.5516 266.103 48.5516C318.547 48.5516 361.401 102.606 361.401 168.898ZM172.437 168.898C172.437 234.171 214.474 287.409 266.103 287.409C317.731 287.409 359.768 234.171 359.768 168.898C359.768 103.625 317.731 50.3874 266.103 50.3874C214.474 50.3874 172.437 103.625 172.437 168.898Z" fill="#1057DF"/>
<path d="M346.708 168.898C346.708 239.474 310.589 296.792 265.898 296.792C221.412 296.792 185.089 239.474 185.089 168.898C185.089 98.322 221.208 41.0045 265.898 41.0045C310.589 41.0045 346.708 98.322 346.708 168.898ZM186.925 168.898C186.925 238.454 222.433 295.16 265.898 295.16C309.568 295.16 344.872 238.454 344.872 168.898C344.872 99.3419 309.364 42.6363 265.898 42.6363C222.433 42.6363 186.925 99.3419 186.925 168.898Z" fill="#1057DF"/>
<path d="M332.22 168.898C332.22 243.758 302.63 304.543 266.103 304.543C229.575 304.543 199.985 243.554 199.985 168.898C199.985 94.2425 229.575 33.2534 266.103 33.2534C302.63 33.2534 332.22 94.0385 332.22 168.898ZM201.618 168.898C201.618 242.738 230.595 302.911 266.103 302.911C301.61 302.911 330.587 242.738 330.587 168.898C330.587 95.0584 301.61 34.8852 266.103 34.8852C230.391 34.8852 201.618 95.0584 201.618 168.898Z" fill="#1057DF"/>
<path d="M317.527 168.898C317.527 248.041 294.468 312.294 266.103 312.294C237.737 312.294 214.678 247.837 214.678 168.898C214.678 89.959 237.737 25.5022 266.103 25.5022C294.468 25.5022 317.527 89.755 317.527 168.898ZM216.107 168.898C216.107 247.021 238.554 310.662 265.898 310.662C293.447 310.662 315.69 247.021 315.69 168.898C315.69 90.7749 293.243 27.1341 265.898 27.1341C238.554 27.1341 216.107 90.7749 216.107 168.898Z" fill="#1057DF"/>
<path d="M302.834 168.898C302.834 253.752 286.713 320.045 265.898 320.045C245.288 320.045 228.963 253.548 228.963 168.898C228.963 84.2476 245.084 17.7511 265.898 17.7511C286.713 17.7511 302.834 84.2476 302.834 168.898ZM230.799 168.898C230.799 251.305 246.512 318.413 266.103 318.413C285.489 318.413 301.406 251.305 301.406 168.898C301.406 86.4913 285.489 19.3829 266.103 19.3829C246.512 19.3829 230.799 86.4913 230.799 168.898Z" fill="#1057DF"/>
<path d="M288.346 168.898C288.346 247.021 279.979 327.796 266.103 327.796C252.226 327.796 243.859 247.021 243.859 168.898C243.859 90.7749 252.226 10 266.103 10C279.979 10 288.346 90.7749 288.346 168.898ZM245.492 168.898C245.492 262.931 256.103 326.164 266.103 326.164C276.102 326.164 286.713 262.931 286.713 168.898C286.713 74.8647 276.102 11.6318 266.103 11.6318C256.103 11.6318 245.492 74.8647 245.492 168.898Z" fill="#1057DF"/>
</g>
<defs>
<filter id="filter0_f_47_9" x="0.000488281" y="0" width="532" height="337.796" filterUnits="userSpaceOnUse" color-interpolation-filters="sRGB">
<feFlood flood-opacity="0" result="BackgroundImageFix"/>
<feBlend mode="normal" in="SourceGraphic" in2="BackgroundImageFix" result="shape"/>
<feGaussianBlur stdDeviation="5" result="effect1_foregroundBlur_47_9"/>
</filter>
</defs>
</svg>
