<svg width="155" height="155" viewBox="0 0 155 155" fill="none" xmlns="http://www.w3.org/2000/svg">
<g filter="url(#filter0_f_47_12)">
<path d="M133.669 39.6389C133.669 44.7135 132.375 50.6838 129.786 57.3505C124.309 71.1815 113.753 86.4056 100.111 100.038C86.4685 113.67 71.3323 124.217 57.3911 129.69C43.3504 135.162 32.297 134.864 26.2226 128.794C20.1482 122.724 19.8495 111.68 25.3264 97.6495C30.8033 83.8185 41.3588 68.5944 55.0012 54.9624C68.6437 41.3304 83.7798 30.783 97.721 25.3103C111.762 19.8376 122.815 20.1361 128.89 26.2059C132.076 29.39 133.669 33.9671 133.669 39.6389ZM22.4386 115.361C22.4386 120.734 23.9323 125.013 26.9197 127.998C38.9688 140.038 71.4319 127.103 99.3143 99.2415C127.197 71.3805 140.142 38.9423 128.093 26.9024C116.044 14.962 83.5807 27.7979 55.6983 55.659C42.1554 69.1915 31.6995 84.2165 26.3222 97.948C23.7331 104.515 22.4386 110.386 22.4386 115.361Z" fill="#1D8139"/>
<path d="M140.242 46.2061C140.242 51.2808 138.947 57.251 136.358 63.9178C130.881 77.7488 120.326 92.9728 106.683 106.605C93.0407 120.237 77.9046 130.784 63.9634 136.257C49.9226 141.73 38.8693 141.431 32.7949 135.361C26.7205 129.292 26.4218 118.247 31.8987 104.217C37.3756 90.3857 47.931 75.1617 61.5735 61.5297C75.2159 47.8977 90.3521 37.3503 104.194 31.8776C118.234 26.4049 129.288 26.7034 135.362 32.7731C138.648 35.9572 140.242 40.5344 140.242 46.2061ZM29.0108 121.829C29.0108 127.103 30.5045 131.481 33.4919 134.565C45.5411 146.605 78.0042 133.67 105.887 105.809C133.769 77.9478 146.714 45.5096 134.665 33.4696C122.616 21.4297 90.1529 34.3652 62.2705 62.2262C41.4583 83.0225 29.0108 106.406 29.0108 121.829Z" fill="#1D8139"/>
<path d="M130.383 36.3552C130.383 41.4299 129.089 47.4001 126.5 54.0669C121.023 67.8979 110.467 83.122 96.8248 96.754C83.1823 110.386 68.0462 120.933 54.105 126.406C40.0642 131.879 29.0108 131.58 22.9365 125.511C16.8621 119.441 16.5634 108.396 22.0402 94.3659C27.5171 80.5349 38.0726 65.3108 51.7151 51.6788C65.3575 38.0468 80.4937 27.4994 94.4349 22.0267C108.476 16.554 119.529 16.8525 125.603 22.9222C128.79 26.1064 130.383 30.6835 130.383 36.3552ZM19.1524 112.078C19.1524 117.451 20.6461 121.729 23.6335 124.715C29.4092 130.486 40.0642 130.685 53.7067 125.312C67.4487 119.938 82.4853 109.49 96.0282 95.9579C123.911 68.0969 136.856 35.6587 124.807 23.6188C112.758 11.5788 80.2945 24.5143 52.4121 52.3753C38.8693 66.0073 28.4134 80.9329 23.036 94.6644C20.447 101.232 19.1524 107.102 19.1524 112.078Z" fill="#1D8139"/>
<path d="M123.811 29.788C123.811 34.8627 122.516 40.8329 119.927 47.4996C114.45 61.3307 103.895 76.5547 90.2525 90.1867C76.6101 103.819 61.4739 114.366 47.5327 119.839C33.4919 125.312 22.4386 125.013 16.3642 118.943C10.2898 112.874 9.99107 101.829 15.468 87.7986C20.9449 73.8681 31.5003 58.7436 45.1428 45.1116C58.7852 31.4796 73.9214 20.9322 87.8626 15.4595C101.903 9.98676 112.957 10.2853 119.031 16.355C122.218 19.5391 123.811 24.1163 123.811 29.788ZM12.5802 105.411C12.5802 110.684 14.0739 115.063 17.0613 118.147C22.8369 123.918 33.4919 124.117 47.1344 118.744C60.8764 113.371 75.913 102.923 89.4559 89.3907C117.338 61.5297 130.284 29.0915 118.234 17.0515C106.185 5.11109 73.7222 18.0466 45.8399 45.8081C25.1272 66.6044 12.5802 89.9877 12.5802 105.411Z" fill="#1D8139"/>
<path d="M120.525 26.5044C120.525 31.5791 119.23 37.5493 116.641 44.216C111.164 58.047 100.609 73.2711 86.9664 86.9031C73.3239 100.535 58.0882 111.082 44.2466 116.456C30.2058 121.928 19.1524 121.63 13.0781 115.56C7.00368 109.59 6.70494 98.4455 12.1818 84.515C17.6587 70.5845 28.2142 55.4599 41.8567 41.8279C55.4991 28.1959 70.6353 17.6485 84.5765 12.1758C98.6172 6.70314 109.671 7.00165 115.745 13.0714C118.932 16.2555 120.525 20.8327 120.525 26.5044ZM9.39359 102.227C9.39359 107.5 10.8873 111.879 13.8747 114.963C25.9239 127.003 58.3869 114.068 86.2693 86.2066C114.152 58.3455 127.097 25.9074 115.048 13.8674C102.899 1.82746 70.4361 14.7629 42.6533 42.624C21.8411 63.3207 9.39359 86.7041 9.39359 102.227Z" fill="#1D8139"/>
<path d="M127.097 33.0716C127.097 38.1463 125.803 44.1165 123.213 50.7833C117.737 64.6143 107.181 79.8383 93.5387 93.4703C79.8962 107.102 64.76 117.65 50.8189 123.122C36.7781 128.595 25.7247 128.297 19.6503 122.227C13.576 116.157 13.2772 105.112 18.7541 91.0823C24.231 77.2513 34.7865 62.0272 48.4289 48.3952C62.0714 34.7632 77.2075 24.2158 91.1487 18.7431C105.19 13.2704 116.243 13.5689 122.317 19.6386C125.504 22.8227 127.097 27.3999 127.097 33.0716ZM15.8663 108.694C15.8663 113.968 17.36 118.346 20.3474 121.431C26.123 127.202 36.7781 127.401 50.4205 122.028C64.1626 116.655 79.1991 106.207 92.742 92.6743C120.624 64.8133 133.57 32.3751 121.521 20.3351C109.471 8.2952 77.0084 21.2307 49.126 49.0917C28.4134 69.888 15.8663 93.2713 15.8663 108.694Z" fill="#1D8139"/>
<path d="M136.956 42.9225C136.956 47.9972 135.661 53.9674 133.072 60.6341C127.495 74.4651 117.04 89.5897 103.397 103.321C89.655 116.953 74.5189 127.401 60.6773 132.874C46.6365 138.347 35.5831 138.048 29.5087 131.978C23.4344 125.909 23.1356 114.864 28.6125 100.834C34.0894 87.0026 44.6449 71.7785 58.2873 58.1465C71.9298 44.5145 87.066 33.9672 101.007 28.4944C115.048 23.0217 126.101 23.3203 132.176 29.39C135.362 32.6736 136.956 37.2508 136.956 42.9225ZM25.7247 118.545C25.7247 123.819 27.2184 128.197 30.2058 131.282C42.255 143.322 74.718 130.386 102.6 102.525C130.483 74.6642 143.428 42.226 131.379 30.186C119.33 18.1461 86.8668 31.0815 58.9844 58.9426C38.1722 79.7388 25.7247 103.122 25.7247 118.545Z" fill="#1D8139"/>
<path d="M150 56.057C150 61.1317 148.706 67.1019 146.117 73.7686C140.64 87.5996 130.084 102.824 116.442 116.456C102.8 130.088 87.6634 140.635 73.7222 146.108C59.6815 151.58 48.6281 151.282 42.5537 145.212C36.4793 139.143 36.1806 128.098 41.6575 114.068C47.1344 100.237 57.6899 85.0125 71.3323 71.3805C84.9748 57.7485 100.111 47.2011 114.052 41.7284C128.093 36.2557 139.146 36.5542 145.221 42.624C148.407 45.8081 150 50.3853 150 56.057ZM38.8693 131.68C38.8693 136.953 40.363 141.332 43.3504 144.416C55.3995 156.456 87.8626 143.521 115.745 115.66C143.627 87.7986 156.573 55.3604 144.524 43.3205C132.474 31.3801 100.011 44.216 72.129 72.0771C51.3168 92.8733 38.8693 116.157 38.8693 131.68Z" fill="#1D8139"/>
<path d="M143.528 49.4897C143.528 54.5644 142.233 60.5346 139.644 67.2014C134.167 81.0324 123.612 96.2565 109.969 109.888C96.3269 123.52 81.1907 134.068 67.2495 139.541C53.2088 145.013 42.1554 144.715 36.081 138.645C30.0066 132.575 29.7079 121.53 35.1848 107.5C40.6617 93.5699 51.2172 78.4453 64.8596 64.8133C78.5021 51.1813 93.6382 40.6339 107.48 35.1612C121.521 29.6885 132.574 29.987 138.648 36.0567C141.835 39.2408 143.528 43.818 143.528 49.4897ZM32.297 125.113C32.297 130.386 33.7907 134.764 36.7781 137.849C48.8273 149.889 81.2903 136.953 109.173 109.092C137.055 81.2314 150 48.7932 137.951 36.7533C125.902 24.7133 93.4391 37.6488 65.5567 65.5098C44.7445 86.3061 32.297 109.689 32.297 125.113Z" fill="#1D8139"/>
<path d="M146.814 52.7733C146.814 57.848 145.519 63.8183 142.93 70.485C137.453 84.316 126.898 99.5401 113.255 113.172C99.613 126.804 84.4769 137.351 70.5357 142.824C56.4949 148.297 45.4415 147.998 39.3672 141.929C33.2928 135.859 32.994 124.814 38.4709 110.784C43.9478 96.953 54.5033 81.7289 68.1458 68.0969C81.7882 54.4649 96.9244 43.9175 110.866 38.4448C124.906 32.9721 135.96 33.2706 142.034 39.3404C145.121 42.5245 146.814 47.1016 146.814 52.7733ZM35.5831 128.396C35.5831 133.67 37.0768 138.048 40.0642 141.133C52.1134 153.173 84.5765 140.237 112.459 112.376C140.341 84.515 153.287 52.0768 141.237 40.0369C129.188 27.9969 96.7252 40.9324 68.8428 68.7934C48.0306 89.5897 35.5831 112.874 35.5831 128.396Z" fill="#1D8139"/>
<path d="M117.239 23.2208C117.239 28.2954 115.944 34.2657 113.355 40.9324C107.878 54.7634 97.3227 69.9875 83.6802 83.6195C70.0378 97.2515 54.8021 107.799 40.9604 113.272C26.9197 118.744 15.8663 118.446 9.79191 112.376C3.71754 106.306 3.4188 95.2614 8.8957 81.2314C14.3726 67.3009 24.9281 52.1763 38.5705 38.5443C52.213 24.9123 67.3491 14.3649 81.2903 8.89222C95.3311 3.41952 106.384 3.71803 112.459 9.78776C115.645 12.9719 117.239 17.549 117.239 23.2208ZM6.10746 98.943C6.10746 104.217 7.60116 108.595 10.5886 111.68C16.3642 117.451 27.0192 117.65 40.6617 112.277C54.4037 106.903 69.4403 96.4555 82.9832 82.923C96.5261 69.3905 106.982 54.3654 112.359 40.6339C117.737 27.0019 117.438 16.355 111.762 10.5838C99.613 -1.45616 67.2495 11.4793 39.3672 39.3403C18.555 60.0371 6.10746 83.4205 6.10746 98.943Z" fill="#1D8139"/>
</g>
<defs>
<filter id="filter0_f_47_12" x="0.000488281" y="0" width="155" height="155" filterUnits="userSpaceOnUse" color-interpolation-filters="sRGB">
<feFlood flood-opacity="0" result="BackgroundImageFix"/>
<feBlend mode="normal" in="SourceGraphic" in2="BackgroundImageFix" result="shape"/>
<feGaussianBlur stdDeviation="2.5" result="effect1_foregroundBlur_47_12"/>
</filter>
</defs>
</svg>
