<svg width="218" height="257" viewBox="0 0 218 257" fill="none" xmlns="http://www.w3.org/2000/svg">
<path d="M-33.3385 101.898C-33.3385 101.359 -33.1592 100.642 -33.1592 100.104C-33.1592 100.821 -33.1592 101.359 -33.3385 101.898Z" fill="#191E2B"/>
<path d="M-21.3273 64.9418L-23.12 68.171C-23.12 68.3504 -23.2993 68.3504 -23.2993 68.5298C-23.4786 68.8886 -23.6578 69.2474 -23.8371 69.6062C-23.6578 69.4268 -23.6578 69.068 -23.4786 68.8886C-23.8371 69.4268 -24.0164 69.965 -24.1957 70.5032L-25.2713 72.8353C-25.092 72.6559 -25.092 72.4765 -24.9127 72.2971C-26.1677 74.9881 -27.4226 77.8585 -28.3189 80.9082C-31.3665 92.9278 -32.6214 105.844 -32.98 127.91C-30.8287 87.0077 -25.092 72.8353 -23.12 68.171C-22.5822 67.0946 -21.8651 66.0182 -21.3273 64.9418Z" fill="#191E2B"/>
<path d="M-34.2349 97.5922C-34.5934 99.2067 -34.952 100.821 -35.3105 102.256L-35.4898 103.153C-36.2069 107.638 -34.7727 116.967 -32.98 127.91C-33.1592 127.013 -33.1592 126.116 -33.3385 125.04C-35.3105 107.1 -34.952 101.898 -34.2349 97.5922Z" fill="#191E2B"/>
<path d="M-36.7447 110.868C-36.924 112.303 -37.1032 114.097 -37.2825 115.352C-37.2825 115.532 -37.2825 115.711 -32.8007 127.91C-36.5654 113.738 -36.5654 112.303 -36.5654 110.509C-36.7447 110.509 -36.7447 110.688 -36.7447 110.868Z" fill="#191E2B"/>
<path d="M210.65 171.324C210.83 170.966 210.83 170.786 211.009 170.427C211.726 168.095 212.622 165.404 213.339 163.072C214.056 160.919 214.774 157.87 215.311 155.537C208.14 185.138 192.006 210.254 167.267 230.526L174.258 224.785C174.975 224.067 175.692 223.529 176.409 222.811C178.561 220.659 181.07 218.147 183.58 215.636C185.014 214.021 186.807 212.048 189.138 209.357C190.213 207.922 191.468 206.307 192.723 204.692C202.942 190.52 206.886 180.833 210.65 171.324Z" fill="#191E2B"/>
<path d="M-37.641 121.452C-37.641 121.631 -37.8203 121.811 -37.8203 121.99C-37.8203 123.246 -37.8203 124.143 -37.8203 124.143C-37.8203 124.861 -37.8203 125.758 -37.8203 126.655C-37.8203 125.219 -37.641 125.04 -36.7447 124.502C-35.1312 124.861 -35.1312 124.861 -32.6214 127.731C-36.2069 121.811 -36.924 121.631 -37.641 121.452Z" fill="#191E2B"/>
<path d="M136.97 247.389C192.365 223.888 213.519 165.046 217.104 144.235C217.104 144.056 217.104 144.056 217.104 143.877C217.283 142.8 217.463 141.365 217.463 140.289L217.642 138.136C217.642 138.136 217.642 138.136 217.642 137.957C216.566 150.156 191.647 234.472 115.098 253.488C116.174 253.309 117.25 253.13 118.325 252.95C123.703 251.515 130.695 249.362 135.894 247.568C136.432 247.568 136.611 247.389 136.97 247.389Z" fill="#191E2B"/>
<path d="M-36.924 131.498C-35.8483 128.628 -35.1312 128.449 -32.8007 127.91C-37.641 125.758 -37.641 130.242 -37.8203 134.01C-37.8203 135.445 -37.641 137.239 -37.4618 138.495V139.93C-37.641 137.957 -37.8203 133.83 -36.924 131.498Z" fill="#191E2B"/>
<path d="M218 130.781C218 130.242 218 129.884 218 129.345V128.987C218 128.448 218 127.91 218 127.372C218 126.834 218 126.475 218 125.937C217.821 135.624 165.115 274.837 58.09 252.412C61.1377 253.13 65.2609 253.847 68.1293 254.565C72.0732 255.103 77.2721 255.641 81.2161 256.179C177.306 258.332 216.746 143.518 218 130.781Z" fill="#191E2B"/>
<path d="M-35.8483 151.77C-35.8483 151.95 -35.6691 152.308 -35.6691 152.488C-38.3581 136.88 -34.4142 130.422 -32.98 127.91C-37.8203 132.395 -37.641 140.109 -35.8483 151.77Z" fill="#191E2B"/>
<path d="M27.076 239.675C136.073 296.185 212.981 137.957 217.821 118.94C217.821 118.761 217.821 118.761 217.821 118.582V117.685C217.821 117.505 217.821 117.505 217.821 117.326C217.821 116.429 217.642 115.173 217.463 114.276C217.463 114.097 217.463 114.097 217.463 113.917C200.432 136.342 191.11 163.61 172.824 185.317C163.86 195.902 142.886 220.659 114.74 235.19C58.4486 264.252 22.7735 238.419 7.35616 225.682C7.89397 226.041 8.43179 226.579 8.9696 226.938L11.4794 229.09C16.1405 232.499 22.415 236.625 27.2553 239.675C27.076 239.675 27.076 239.675 27.076 239.675Z" fill="#191E2B"/>
<path d="M-34.5934 157.511V157.331C-34.5934 157.511 -34.4142 157.69 -34.4142 157.87C-34.0556 159.305 -33.5178 161.099 -33.1592 162.534C-32.4422 165.404 -31.1873 169.172 -30.1116 172.042C-29.3945 173.657 -28.6775 175.989 -27.9604 177.783C-27.064 179.756 -25.8091 182.447 -24.9128 184.42C-24.0164 186.394 -22.5822 189.085 -21.5066 191.058C-20.2517 193.39 -18.459 196.081 -16.8455 198.593C0.723103 224.247 29.048 244.339 60.7791 241.648C135.894 235.01 187.345 149.976 206.886 117.864C213.519 106.741 213.519 106.741 216.208 106.203V106.024C215.849 104.23 215.491 102.077 215.132 100.283V100.104C214.953 99.5655 214.056 99.0273 213.519 98.6685C210.65 100.104 208.678 102.974 198.639 118.402C172.645 158.049 142.886 197.875 100.577 221.197C4.84636 273.402 -44.6326 171.504 -32.98 127.91C-36.2069 136.342 -36.5654 146.747 -34.5934 157.511Z" fill="#191E2B"/>
<path d="M187.703 113.2C204.734 89.1605 208.858 83.2404 212.622 90.9545V90.7751C212.264 89.5193 211.726 88.2635 211.367 87.0077C211.009 86.1107 210.83 85.2137 210.471 84.3167C205.451 73.5529 198.46 82.8816 181.967 105.486C163.681 130.422 140.914 161.278 107.569 187.65C9.14886 265.149 -39.4338 182.447 -32.8007 128.09C-46.2461 189.623 39.8043 322.736 187.703 113.2Z" fill="#191E2B"/>
<path d="M168.521 99.0273C190.034 70.862 198.101 60.2775 206.168 74.2705C206.168 74.0911 205.989 74.0911 205.989 73.9117C204.914 71.5795 203.3 68.7092 202.224 66.377C195.95 55.4338 188.421 59.9187 181.429 66.1976C152.028 92.7484 132.667 127.91 103.984 154.999C11.6587 242.186 -34.2349 183.703 -32.98 127.91C-38.1789 184.779 24.9248 286.318 168.521 99.0273Z" fill="#191E2B"/>
<path d="M150.774 77.3203C172.286 50.59 183.76 40.9026 195.412 55.2544C193.619 52.7428 191.289 49.6931 189.317 47.1815C188.241 45.9257 187.166 44.6699 186.09 43.4142C175.872 32.2915 170.493 38.5704 104.521 113.379C9.14888 221.915 -24.5542 172.939 -31.7251 137.598C-25.6298 169.71 5.20491 259.229 150.774 77.3203Z" fill="#191E2B"/>
<path d="M-32.8007 129.345C-32.6214 132.036 -32.0836 134.727 -31.5458 137.777C-32.2629 134.01 -32.6214 130.96 -32.8007 129.345Z" fill="#191E2B"/>
<path d="M-32.98 127.91C-32.98 127.91 -32.98 128.448 -32.8007 129.345C-32.8007 128.807 -32.98 128.449 -32.98 127.91Z" fill="#191E2B"/>
<path d="M108.645 82.3434C144.32 37.8528 160.813 21.1689 178.561 35.7001C178.381 35.5207 178.381 35.5207 178.202 35.3413C175.692 33.0091 172.465 30.3182 170.135 28.1654C170.135 28.1654 169.956 28.1654 169.956 27.986C153.283 15.2488 135.894 27.4478 95.3786 79.6524C-10.3917 215.815 -30.1116 143.697 -32.98 127.91C-31.5458 139.392 -15.0528 236.266 108.645 82.3434Z" fill="#191E2B"/>
<path d="M80.1405 73.1941C117.608 22.9629 136.97 8.96987 156.152 18.4779C155.435 18.1191 154.897 17.7603 154.359 17.4015L153.821 17.0427C153.463 16.8633 152.925 16.5046 152.566 16.3252L147.009 13.4548C146.292 13.096 145.575 12.7372 144.858 12.3784C118.863 1.07638 88.0284 43.5936 67.4122 71.9383C0.543831 163.969 -24.0164 153.205 -32.98 127.91C-27.2433 149.438 -5.01358 187.291 80.1405 73.1941Z" fill="#191E2B"/>
<path d="M50.9192 70.6826C81.9332 26.7302 102.549 0.358795 128.365 5.92011C127.468 5.74072 126.572 5.38192 125.675 5.20252C122.449 4.30554 118.863 3.40855 115.995 2.69096C90.3589 -1.07638 70.6391 25.4744 40.88 69.068C21.1601 97.951 -15.5906 151.591 -32.98 127.91C-15.5906 165.046 34.4262 94.0042 50.9192 70.6826Z" fill="#191E2B"/>
<path d="M28.1517 67.4534C60.2413 17.9397 74.9416 1.07638 96.992 0.179397C96.6335 0.179397 96.0956 0.179397 95.7371 0.179397L90.3589 0L85.1601 0.179397C84.6223 0.179397 83.9052 0.179397 83.3673 0.179397C60.062 2.15277 40.88 33.0091 16.8576 72.1177C-0.173252 99.5655 -19.5346 130.781 -32.98 127.91C-19.3553 140.827 9.32815 96.6952 28.1517 67.4534Z" fill="#191E2B"/>
<path d="M7.71471 70.6826C33.5298 25.1156 46.0789 7.89348 65.0817 2.51156C61.8548 3.22915 57.7315 4.30554 54.1461 5.20252C53.429 5.38192 52.7119 5.56132 51.9948 5.74072C32.8128 13.096 18.8296 38.0322 -3.75868 81.0876C-19.7139 111.585 -25.9884 121.631 -32.98 127.91C-22.7615 124.322 -10.0332 101.898 7.71471 70.6826Z" fill="#191E2B"/>
<path d="M35.3225 12.3784C34.964 12.5578 34.6055 12.7372 34.2469 12.9166L29.048 15.4282L26.0004 17.2221C25.4626 17.5809 24.9248 17.9397 24.387 18.1191C15.2441 24.0392 8.43179 34.6237 0.543835 49.8725C-12.543 74.9881 -21.5066 101.898 -32.8007 127.91C-27.7811 119.837 -20.9688 104.947 -12.3637 86.1107C10.5831 36.4177 20.443 20.9895 35.3225 12.3784Z" fill="#191E2B"/>
<path d="M10.4038 27.8066C10.0452 27.986 9.86596 28.3448 9.50742 28.5242C9.32815 28.7036 9.14888 28.883 8.9696 29.0624C8.79033 29.2418 8.43179 29.4212 8.25252 29.6006C6.10126 31.5739 3.77073 33.5473 1.79874 35.3413C-9.67465 46.4639 -21.3273 77.6791 -32.98 127.91C-10.0332 51.6664 0.543835 36.9559 10.4038 27.8066Z" fill="#191E2B"/>
<path d="M-10.3917 48.7961C-11.8259 50.59 -13.2601 52.7428 -14.6943 54.3574C-14.8735 54.7162 -15.2321 55.075 -15.4113 55.4338C-23.12 67.4534 -29.036 91.8514 -32.98 127.91C-29.5738 105.486 -22.2237 65.48 -9.13684 47.1815C-9.49538 47.7197 -10.0332 48.2579 -10.3917 48.7961Z" fill="#191E2B"/>
<path d="M-32.98 99.5655C-32.6214 96.5158 -32.0836 93.6454 -31.3665 90.7751C-30.4702 85.5725 -30.2909 85.0343 -29.036 81.0876C-29.036 81.267 -29.2153 81.267 -29.2153 81.4464C-29.9324 83.4198 -30.8287 85.9313 -31.5458 87.9047C-32.98 92.569 -33.3385 98.1303 -33.5178 104.409C-33.5178 104.05 -33.5178 103.871 -33.3385 103.512C-33.6971 106.741 -33.8763 110.15 -33.8763 113.379C-33.6971 118.582 -33.5178 119.299 -32.98 127.552C-33.5178 114.635 -33.3385 108.535 -32.98 99.5655ZM-33.3385 101.898C-33.3385 101.359 -33.1592 100.642 -33.1592 100.104C-33.1592 100.821 -33.1592 101.359 -33.3385 101.898Z" fill="#191E2B"/>
</svg>
