<svg width="188" height="188" viewBox="0 0 188 188" fill="none" xmlns="http://www.w3.org/2000/svg">
<g filter="url(#filter0_f_47_11)">
<path d="M142.662 45.3032C142.662 45.0512 142.787 44.7992 142.787 44.5472C142.787 44.2952 142.787 44.1691 142.787 43.9171V44.0431C142.787 44.4212 142.662 44.9252 142.662 45.3032Z" fill="#D3C013"/>
<path d="M141.53 31.0641C141.656 31.5681 141.782 32.1982 141.907 32.7022C141.907 32.1982 141.782 31.6941 141.53 31.0641Z" fill="#D3C013"/>
<path d="M141.656 44.0431C141.53 44.5472 141.404 45.0512 141.153 45.5553C141.404 45.5553 141.782 45.4292 142.033 45.4292C142.285 44.4212 142.536 43.4131 142.662 42.279C142.913 40.5149 142.913 38.6247 142.662 36.7345L142.536 36.1045C142.41 34.9704 142.285 34.4664 142.159 33.5843C142.033 33.3323 142.033 32.9542 141.907 32.5762C142.285 34.0883 142.41 35.7265 142.41 37.2386C142.536 39.6328 142.285 41.775 141.656 44.0431Z" fill="#D3C013"/>
<path d="M141.53 31.0641V30.8121C141.53 30.8121 141.53 30.8121 141.53 30.9381C141.53 30.9381 141.53 30.9381 141.53 31.0641Z" fill="#D3C013"/>
<path d="M137.884 46.1853C138.387 46.0593 138.89 45.9333 139.392 45.9333C142.159 39.5068 142.913 30.8121 137.003 21.8653C136.5 21.2353 136.249 20.8573 135.872 20.3532C135.495 19.8492 134.866 19.2191 133.86 18.085C133.483 17.707 133.106 17.329 132.728 17.077C140.021 23.8815 143.039 35.3484 137.884 46.1853Z" fill="#D3C013"/>
<path d="M123.172 11.4065C124.304 11.9105 125.31 12.6666 126.441 13.2967C127.447 14.0527 128.453 14.9348 129.459 15.8169C131.848 18.2111 133.734 21.1093 134.992 24.1335C136.249 27.1578 136.878 30.434 137.003 33.8363C137.129 37.1126 136.5 40.5148 135.369 43.6651C134.992 44.9252 134.363 46.0593 133.86 47.1934C133.86 47.1934 133.86 47.1934 133.986 47.1934C134.111 47.1934 134.237 47.0674 134.363 47.0674C134.866 46.9414 135.369 46.8154 135.872 46.5633C136.249 45.6813 136.752 44.7992 137.003 43.9171C138.261 40.7669 138.764 37.4906 138.764 34.0883C138.764 30.8121 138.135 27.5358 136.878 24.5116C135.62 21.4873 133.86 18.5891 131.345 16.1949C130.716 15.5648 130.088 14.9348 129.333 14.4307C128.579 14.0527 127.824 13.5487 127.196 13.0446C126.441 12.5406 125.687 12.1626 124.932 11.7845C124.429 11.5325 123.927 11.2805 123.298 11.0285C123.046 10.9025 122.795 10.7765 122.543 10.7765C122.418 10.7765 122.292 10.6504 122.292 10.6504C121.537 10.3984 120.532 10.1464 119.777 9.89438C119.777 9.89438 119.777 9.89438 119.651 9.89438C119.148 9.76837 118.645 9.64236 118.143 9.51635C118.771 9.64236 119.274 9.76837 119.903 10.0204C120.909 10.3984 122.04 10.9025 123.172 11.4065Z" fill="#D3C013"/>
<path d="M118.017 9.64236C117.514 9.51635 117.011 9.39034 116.508 9.39034C116.382 9.39034 116.382 9.39034 116.256 9.39034C116.256 9.39034 116.256 9.39034 116.382 9.39034C116.885 9.39034 117.388 9.51635 118.017 9.64236Z" fill="#D3C013"/>
<path d="M128.202 49.3356C128.956 48.9575 129.836 48.7055 130.591 48.3275C139.267 32.0722 129.711 8.38226 108.461 9.01231H108.083C107.077 9.13832 105.946 9.26433 104.814 9.39034C104.437 9.39034 104.06 9.51635 103.808 9.51635C104.06 9.51635 104.311 9.39034 104.563 9.39034C124.807 6.99615 138.135 30.6861 128.202 49.3356Z" fill="#D3C013"/>
<path d="M104.814 12.0366C106.7 12.5406 108.586 13.2967 110.472 14.4307C112.358 15.5648 114.119 16.8249 115.753 18.5891C118.143 20.9833 120.154 23.8815 121.663 26.9058C123.172 29.93 124.178 33.2063 124.555 36.4825C125.058 39.7588 124.932 43.0351 124.304 46.0593C123.801 48.3275 123.172 50.3436 122.166 52.3598C123.046 51.9818 123.801 51.4777 124.555 51.0997C124.681 51.0997 124.681 50.9737 124.807 50.9737C125.813 49.0835 126.567 47.0674 127.07 45.0512C127.824 41.901 127.95 38.6247 127.573 35.3484C127.196 32.0722 126.316 28.7959 124.932 25.7717C123.549 22.7474 121.537 19.8492 119.148 17.455C117.514 15.8169 115.879 14.5568 114.119 13.5487C112.358 12.5406 110.598 11.7845 108.712 11.2805C106.826 10.5244 105.066 10.2724 103.179 10.2724C101.419 10.2724 99.7845 10.5244 98.1499 11.0285C98.0242 11.0285 97.8984 11.1545 97.7727 11.1545C97.5212 11.2805 97.144 11.4065 96.8925 11.4065C96.1381 11.6585 95.2579 12.0366 94.5034 12.2886C96.0123 11.7845 97.6469 11.5325 99.2816 11.4065C101.042 11.4065 102.928 11.5325 104.814 12.0366Z" fill="#D3C013"/>
<path d="M89.9768 15.1868C91.7372 15.0608 93.6233 15.1868 95.6351 15.6909C97.5212 16.1949 99.533 17.077 101.419 18.2111C103.305 19.3451 105.317 20.8573 107.077 22.6214C109.466 25.0156 111.604 27.9138 113.239 30.8121C114.873 33.8363 116.005 36.9866 116.759 40.0108C117.514 43.1611 117.64 46.3113 117.388 49.2096C117.137 51.6037 116.634 53.8719 115.628 55.8881C116.005 55.6361 116.256 55.5101 116.634 55.258C117.137 54.88 117.891 54.502 118.52 54.1239C119.526 52.1078 120.154 49.9656 120.532 47.5714C120.909 44.5472 120.909 41.3969 120.28 38.2467C119.651 35.0964 118.645 31.8202 117.011 28.9219C115.502 25.8977 113.49 23.1254 110.975 20.6052C109.215 18.8411 107.329 17.455 105.443 16.3209C103.431 15.3128 101.419 14.4307 99.533 14.0527C97.6469 13.5487 95.6351 13.4227 93.8747 13.5487C92.2401 13.6747 90.7313 14.0527 89.3481 14.6828C89.0966 14.8088 88.8452 14.9348 88.5937 14.9348C87.5878 15.3128 86.3304 16.0689 85.3245 16.5729C85.4502 16.5729 85.5759 16.4469 85.5759 16.4469C86.9591 15.8169 88.4679 15.4388 89.9768 15.1868Z" fill="#D3C013"/>
<path d="M91.7372 23.7555C93.6233 25.0156 95.6351 26.5277 97.5212 28.5439C99.9103 30.9381 102.048 33.7103 103.934 36.6085C105.694 39.5068 107.077 42.531 108.083 45.4292C109.089 48.4535 109.592 51.3517 109.718 53.9979C109.844 56.3921 109.466 58.6603 108.712 60.5505C109.718 59.9204 110.724 59.1644 111.604 58.5343C112.484 56.5181 112.861 54.25 112.987 51.8558C113.113 49.0835 112.61 46.0593 111.73 43.0351C110.85 40.0108 109.592 36.8606 107.832 33.9623C106.071 31.0641 104.06 28.2919 101.545 25.7717C99.6588 23.8815 97.7727 22.3694 95.7608 21.1093C93.8747 19.8492 91.8629 19.0931 89.9768 18.4631C88.0907 17.959 86.3304 17.707 84.57 17.833C82.9354 17.959 81.3008 18.4631 79.9176 19.3451L76.8999 21.4873L76.5227 21.8653C76.5227 21.8653 76.6484 21.8653 76.6484 21.7393C77.9058 20.9833 79.2889 20.4792 80.7978 20.3532C82.4324 20.2272 84.1928 20.4792 85.9532 20.9833C87.8392 21.6133 89.7253 22.4954 91.7372 23.7555Z" fill="#D3C013"/>
<path d="M81.5523 30.8121C83.4384 32.1982 85.3244 33.8363 87.3363 35.7265C89.7253 38.1207 91.9887 40.8929 94.0005 43.6651C95.8866 46.4373 97.5212 49.3356 98.9043 52.1078C100.162 54.88 101.042 57.5262 101.545 59.9204C101.922 62.1886 102.048 64.2048 101.671 65.9689C101.796 65.8429 101.922 65.8429 102.048 65.7169C102.802 65.0868 103.808 64.3308 104.688 63.7007C105.191 61.9366 105.317 59.7944 105.066 57.4002C104.814 54.88 104.06 52.1078 102.802 49.2096C101.671 46.3113 100.162 43.4131 98.2756 40.6409C96.3895 37.8686 94.252 35.0964 91.7372 32.7022C89.8511 30.8121 87.8392 29.1739 85.9532 27.7878C84.0671 26.5277 82.181 25.5196 80.4206 24.8896C78.6602 24.2595 77.0256 24.0075 75.5168 24.0075C74.2594 24.0075 73.002 24.3856 71.996 25.0156C71.8703 25.1416 71.7446 25.1416 71.6188 25.2676L70.4872 26.0237L69.4813 26.6537L68.0981 27.7878C68.9783 27.0318 70.2357 26.7797 71.6188 26.7797C73.002 26.7797 74.5108 27.1578 76.2712 27.7878C77.9058 28.4179 79.6662 29.426 81.5523 30.8121Z" fill="#D3C013"/>
<path d="M66.212 35.4744C67.7209 36.3565 69.3555 37.4906 71.1159 38.8767C72.8762 40.2628 74.7623 42.027 76.7742 44.0431C79.1632 46.4373 81.5523 49.0835 83.6898 51.7298C85.8274 54.376 87.7135 57.0222 89.2224 59.5424C90.857 62.0626 92.1144 64.4568 92.8688 66.599C93.749 68.6151 94.1262 70.3793 94.1262 71.7654C94.252 71.6394 94.252 71.6394 94.3777 71.5133C95.1322 70.7573 96.2638 70.0012 97.144 69.2452C97.2697 67.733 97.0182 65.8429 96.3895 63.7007C95.6351 61.4325 94.6292 58.9123 93.1203 56.2661C91.6114 53.6199 89.8511 50.8477 87.8392 48.2015C85.8274 45.5553 83.5641 42.909 81.0493 40.3888C79.0375 38.3727 77.1514 36.7345 75.2653 35.3484C73.3792 33.9623 71.7446 32.8282 70.11 32.0722C68.6011 31.3161 67.0922 30.8121 65.9605 30.6861C64.8289 30.56 63.9487 30.8121 63.1943 31.3161L63.0685 31.4421L62.4398 31.9462L61.9369 32.3242L59.5478 34.3404C60.1765 33.8363 60.931 33.7103 62.0626 33.9623C63.4458 34.2143 64.7031 34.7184 66.212 35.4744Z" fill="#D3C013"/>
<path d="M88.4679 77.0578C88.9709 76.5538 89.4739 76.0497 90.1026 75.5457C89.8511 74.4116 89.2224 72.7735 88.0907 71.0093C86.9591 69.1192 85.5759 66.851 83.8156 64.5828C82.0552 62.1886 80.0434 59.6684 77.7801 57.1482C75.5168 54.628 73.2534 51.9818 70.7387 49.5876C68.7268 47.5714 66.8407 45.8073 65.0804 44.2952C63.32 42.783 61.8111 41.5229 60.428 40.6409C59.0449 39.6328 57.9132 39.0027 57.033 38.7507C56.1529 38.3727 55.3984 38.3727 55.1469 38.7507L55.0212 38.8767L52.6321 41.1449L51.8777 41.901C52.1292 41.775 52.6321 41.901 53.3866 42.279C54.141 42.783 55.2727 43.4131 56.5301 44.5472C57.7875 45.5553 59.2963 46.8154 61.0567 48.4535C62.6913 49.9656 64.5774 51.8558 66.5892 53.7459C68.9783 56.1401 71.4931 58.7863 73.7564 61.1805C76.0197 63.7007 78.1573 66.0949 80.0434 68.3631C81.9295 70.6313 83.5641 72.6474 84.8215 74.4116C86.0789 76.1757 86.9591 77.5618 87.3363 78.5699C87.462 78.4439 87.462 78.4439 87.5878 78.3179C87.7135 78.1919 87.8393 78.0659 87.965 77.9399L88.4679 77.0578Z" fill="#D3C013"/>
<path d="M82.9354 82.3502C77.4028 76.5538 49.1114 47.9494 46.9739 46.1853L46.8481 46.3113C45.9679 47.1934 44.962 48.2015 44.2076 48.9575C44.0818 49.0835 43.9561 49.3356 43.7046 49.4616L43.5789 49.5876C43.4531 49.7136 43.7046 50.2176 44.2076 50.8477C44.7105 51.6037 45.465 52.6118 46.5966 53.7459C47.7283 55.006 48.9857 56.3921 50.6203 58.1563C52.2549 59.7944 54.0153 61.6846 56.0271 63.7007C58.4162 66.0949 60.931 68.6151 63.4458 70.8833C65.8348 73.1515 68.2239 75.4197 70.4872 77.3098C72.6247 79.326 74.6366 80.9641 76.2712 82.3502C77.9058 83.7363 79.1632 84.7444 80.0434 85.2485C80.1691 85.1224 80.1691 85.1224 80.2949 84.9964C81.0493 84.2404 82.0552 83.2323 82.9354 82.3502Z" fill="#D3C013"/>
<path d="M41.0641 68.7411C42.573 70.5053 44.2076 72.3954 46.2194 74.4116C48.6085 76.8058 51.249 79.2 53.8895 81.3421C56.5301 83.4843 59.0449 85.5005 61.5597 87.1386C64.0745 88.7767 66.3378 90.1629 68.3496 91.0449C70.3614 91.927 71.996 92.557 73.2534 92.557C73.3792 92.431 73.3792 92.305 73.5049 92.305C74.2594 91.4229 75.1395 90.4149 76.0197 89.5328C74.8881 89.2808 73.3792 88.5247 71.4931 87.3906C69.607 86.2565 67.4694 84.7444 65.0804 82.9803C62.6913 81.2161 60.1765 79.2 57.6617 76.9318C55.1469 74.6636 52.6321 72.2694 50.1174 69.8752C48.1055 67.8591 46.3452 65.9689 44.8363 64.2048C43.3274 62.4406 42.07 60.9285 41.1898 59.5424C40.1839 58.1563 39.5552 57.0222 39.178 56.1401C38.8008 55.258 38.8008 54.628 39.0523 54.25L36.5375 57.1482L35.9088 57.7782C35.9088 57.7782 35.9088 57.9043 35.783 57.9043C35.4058 58.4083 35.4058 59.1644 35.6573 60.0464C35.9088 61.0545 36.5375 62.3146 37.2919 63.8267C38.4236 65.3389 39.5552 66.977 41.0641 68.7411Z" fill="#D3C013"/>
<path d="M67.8466 99.1096C68.3496 98.4795 68.9783 97.7235 69.4813 97.0934C67.9724 97.2194 66.0863 96.9674 63.9487 96.3373C61.6854 95.5813 59.1706 94.4472 56.6558 93.0611C54.0153 91.549 51.3747 89.7848 48.6085 87.7687C45.9679 85.7525 43.3274 83.4843 40.8126 80.9641C38.8008 78.9479 37.1662 77.0578 35.783 75.1676C34.3999 73.2775 33.2682 71.6394 32.5138 70.0012C31.7594 68.4891 31.2564 66.977 31.1307 65.8429C31.0049 64.7088 31.2564 63.7007 31.7594 63.0707C31.7594 63.0707 31.7594 62.9447 31.8851 62.9447L31.6336 63.1967L29.1188 66.3469L28.7416 66.725C28.1129 67.607 27.8614 68.6151 27.8614 69.8752C27.8614 71.1353 28.2387 72.6474 28.9931 74.4116C29.7475 76.0497 30.7534 77.8138 32.0108 79.704C33.394 81.5942 35.0286 83.4843 36.9147 85.5005C39.3037 87.8947 42.07 90.1628 44.7105 92.179C47.4768 94.1952 50.2431 95.8333 53.0094 97.2194C55.7756 98.6055 58.2904 99.4876 60.6795 100.118C62.9428 100.622 64.9546 100.748 66.5892 100.37C66.715 100.244 66.715 100.244 66.8407 100.118C67.0922 99.8656 67.2179 99.6136 67.4694 99.3616L67.8466 99.1096Z" fill="#D3C013"/>
<path d="M21.8259 84.9964C22.4546 86.7606 23.3348 88.6507 24.5922 90.5409C25.8496 92.431 27.3585 94.3212 29.2446 96.2113C31.6336 98.6055 34.3999 100.874 37.2919 102.638C40.1839 104.402 43.2017 105.914 46.0937 106.922C48.9857 107.93 51.8777 108.56 54.644 108.686C57.033 108.812 59.1706 108.56 61.1824 107.804C61.5597 107.174 61.9369 106.67 62.3141 106.166C62.6913 105.662 63.0685 105.158 63.4458 104.654C61.6854 105.284 59.5478 105.41 57.1588 105.032C54.644 104.78 51.8777 104.024 48.9857 102.89C46.0937 101.756 43.2017 100.244 40.4354 98.3535C37.6691 96.4634 34.9029 94.3212 32.5138 91.801C30.6277 89.9108 28.9931 87.8947 27.7357 86.0045C26.4783 84.1144 25.4724 82.2242 24.8437 80.4601C24.215 78.6959 23.9635 77.0578 23.9635 75.5457C23.9635 74.0335 24.3407 72.7734 25.0952 71.6394L23.0833 74.5376L22.4546 75.4197C22.3289 75.5457 22.3289 75.6717 22.2032 75.7977C21.5745 76.9318 21.1972 78.3179 21.0715 79.704C21.0715 81.4681 21.323 83.2323 21.8259 84.9964Z" fill="#D3C013"/>
<path d="M51.5005 113.475C48.7342 113.601 45.7165 113.223 42.6987 112.341C39.681 111.459 36.5375 110.198 33.6455 108.434C30.7534 106.67 27.9872 104.654 25.4724 102.134C23.5863 100.244 22.2032 98.3535 20.9458 96.4634C19.8141 94.5732 18.9339 92.6831 18.3052 90.7929C17.8023 88.9027 17.5508 87.1386 17.6765 85.3745C17.8023 83.7363 18.1795 82.0982 19.0597 80.7121V80.8381L17.1736 84.1144L17.0478 84.3664C17.0478 84.3664 17.0478 84.3664 17.0478 84.4924C16.2934 86.0045 15.9162 87.6426 15.7904 89.4068C15.6647 91.1709 15.9162 93.0611 16.4191 94.9512C16.9221 96.8414 17.8023 98.7315 18.9339 100.622C20.0656 102.512 21.5745 104.402 23.3348 106.166C25.7239 108.56 28.4901 110.703 31.5079 112.341C34.5256 113.979 37.5434 115.239 40.6869 115.995C43.8304 116.751 46.8481 117.003 49.7401 116.751C52.1292 116.499 54.3925 115.995 56.4043 114.987C57.033 113.979 57.6617 113.097 58.2904 112.089C56.2786 112.971 54.0153 113.475 51.5005 113.475Z" fill="#D3C013"/>
<path d="M53.2608 120.279C53.5123 119.775 53.7638 119.271 54.0153 118.893C52.0034 119.901 49.7401 120.531 47.4768 120.909C44.4591 121.413 41.3156 121.287 38.1721 120.657C35.0286 120.027 31.7594 119.019 28.8674 117.381C25.8496 115.869 23.0833 113.853 20.6943 111.333C18.9339 109.568 17.5508 107.678 16.4191 105.788C15.2875 103.898 14.533 102.008 14.0301 99.9916C13.5271 98.1015 13.4014 96.2113 13.5271 94.3212C13.6529 92.557 14.0301 90.7929 14.7845 89.1548C14.7845 89.1548 14.7845 89.1548 14.7845 89.0288V89.1548L13.6529 91.801L13.4014 92.557C13.2756 92.8091 13.2756 92.9351 13.1499 93.1871C12.6469 94.6992 12.2697 96.3373 12.144 97.9755C12.0182 99.8656 12.2697 101.756 12.6469 103.646C13.1499 105.536 13.9043 107.552 15.036 109.316C16.1676 111.207 17.5508 112.971 19.1854 114.735C21.5745 117.129 24.4665 119.145 27.4842 120.657C30.502 122.169 33.7712 123.178 36.9147 123.682C40.1839 124.186 43.3274 124.186 46.4709 123.556C48.7342 123.178 50.8718 122.421 52.8836 121.413C53.0094 121.161 53.2608 120.783 53.3866 120.531C53.3866 120.531 53.3866 120.531 53.3866 120.405L53.2608 120.279Z" fill="#D3C013"/>
<path d="M49.7401 127.336C49.9916 126.706 50.2431 126.076 50.6203 125.446V125.32C50.6203 125.32 50.6203 125.32 50.6203 125.446C50.6203 125.32 50.7461 125.194 50.7461 125.068C33.1425 134.518 5.60552 119.775 11.1381 98.1015C10.8866 99.1096 10.5094 100.37 10.2579 101.504C10.2579 101.63 10.1321 101.756 10.1321 101.882C10.1321 102.008 10.1321 102.134 10.0064 102.134C9.88067 102.638 9.75493 103.268 9.75493 103.772C7.36587 122.043 30.3762 137.795 49.7401 127.336Z" fill="#D3C013"/>
<path d="M15.7904 128.218C18.1795 130.612 21.0715 132.502 24.0892 133.762C27.107 135.022 30.3762 135.779 33.7712 135.905C37.0404 136.031 40.4354 135.527 43.5789 134.518C44.962 134.014 46.3452 133.51 47.6026 132.754C47.7283 132.502 47.7283 132.25 47.854 131.998C47.9798 131.494 48.2313 130.99 48.4827 130.486C32.1366 139.181 8.37179 129.478 9.12623 108.182V108.308L9.00049 109.316C9.00049 110.45 9.00049 111.963 9.00049 113.097C9.12623 114.483 9.25197 115.743 9.62919 117.129C9.88067 118.515 10.3836 119.901 10.8866 121.161C11.3895 122.421 12.144 123.682 12.8984 124.816C13.7786 125.95 14.7845 127.21 15.7904 128.218Z" fill="#D3C013"/>
<path d="M34.7771 139.937C38.0463 139.937 41.3156 139.307 44.4591 138.047C45.0878 137.795 45.7165 137.543 46.3452 137.165C46.4709 136.535 46.7224 135.905 46.8481 135.274C32.891 142.457 15.9162 136.661 10.5094 121.413C10.5094 121.413 10.5094 121.413 10.5094 121.287V121.413C10.8866 122.673 11.641 124.312 12.144 125.572C12.5212 126.202 12.8984 127.084 13.2756 127.84C13.5271 128.218 13.7786 128.722 14.0301 129.1C14.2816 129.478 14.6588 129.982 14.9103 130.36C15.1617 130.738 15.539 131.116 15.9162 131.494C16.2934 131.872 16.5449 132.25 16.9221 132.628C19.3111 135.022 22.2032 136.913 25.2209 138.047C28.2387 139.307 31.5079 139.937 34.7771 139.937Z" fill="#D3C013"/>
<path d="M45.5907 140.693C45.7165 140.189 45.7165 139.811 45.8422 139.307C37.5434 142.961 28.2387 141.953 20.3171 136.157L21.8259 137.291C21.9517 137.417 21.9517 137.417 22.0774 137.417C22.7061 137.921 23.0833 138.173 23.712 138.425C24.215 138.677 24.9694 139.055 26.1011 139.811H26.2268L26.7298 140.063C28.9931 141.071 31.5079 141.827 33.8969 142.079C36.4117 142.331 38.9265 142.205 41.4413 141.827C42.8245 141.575 44.2076 141.197 45.5907 140.693Z" fill="#D3C013"/>
<path d="M45.3392 142.709C45.3392 142.583 45.3392 142.583 45.3392 142.709C45.3392 142.457 45.3392 142.331 45.465 142.079C44.2076 142.457 42.8245 142.709 41.5671 142.835C39.8067 142.961 38.1721 142.961 36.4117 142.835C36.286 142.835 36.0345 142.835 35.9088 142.709H36.286C37.1662 142.835 37.5434 142.835 38.2978 142.961C38.8008 142.961 39.5552 142.961 40.8126 142.961C41.0641 142.961 41.3156 142.961 41.5671 142.961C42.1958 142.961 42.8244 142.961 43.3274 142.835C43.9561 142.961 44.5848 142.835 45.3392 142.709Z" fill="#D3C013"/>
<path d="M100.916 169.549C100.665 169.675 100.539 169.675 100.413 169.675C100.413 169.675 100.413 169.675 100.287 169.675C100.162 169.675 99.9102 169.801 99.7845 169.801C99.6588 169.801 99.533 169.927 99.2816 169.927C99.2816 169.927 99.2815 169.927 99.1558 169.927C99.0301 169.927 98.9043 170.053 98.6529 170.053C97.8984 170.935 97.144 171.817 96.3895 172.573C95.6351 173.33 94.7549 173.96 93.8747 174.59C92.9946 175.22 92.1144 175.724 91.1085 176.102C90.354 176.48 89.4739 176.858 88.5937 177.11C89.7253 176.732 90.9827 176.354 91.9886 175.976C92.2401 175.85 92.3659 175.85 92.6173 175.724C97.2697 174.212 99.533 171.313 100.916 169.549Z" fill="#D3C013"/>
<path d="M106.7 166.903C106.449 167.029 106.323 167.155 106.071 167.155C106.071 167.155 106.071 167.155 105.946 167.155C105.82 167.281 105.569 167.281 105.443 167.407C105.443 167.407 105.443 167.407 105.317 167.407C105.191 167.533 104.94 167.533 104.814 167.659C104.814 167.659 104.814 167.659 104.688 167.659C104.563 167.785 104.437 167.785 104.185 167.911C104.185 167.911 104.185 167.911 104.06 167.911C101.419 171.565 99.533 172.699 97.3955 173.708C98.5271 173.204 99.9103 172.447 100.916 171.943C101.168 171.817 101.545 171.565 101.796 171.439C102.048 171.313 102.299 171.187 102.551 170.935C103.054 170.557 103.557 170.179 104.06 169.675C104.563 169.171 104.94 168.793 105.443 168.163C105.946 168.037 106.323 167.533 106.7 166.903Z" fill="#D3C013"/>
<path d="M112.861 163.375C112.736 163.375 112.736 163.501 112.61 163.501L112.484 163.627C112.358 163.753 112.107 163.879 111.981 163.879L111.856 164.005C111.856 164.005 111.856 164.005 111.73 164.005C111.604 164.131 111.353 164.257 111.227 164.257C111.227 164.257 111.227 164.257 111.101 164.257C110.85 164.383 110.724 164.509 110.472 164.635C110.221 165.139 109.844 165.643 109.592 166.021C109.215 166.525 108.963 166.903 108.586 167.281C108.209 167.659 107.832 168.037 107.455 168.289C107.203 168.541 106.826 168.793 106.574 168.919L109.466 167.155L109.718 167.029C109.718 167.029 109.844 167.029 109.844 166.903C110.221 166.651 110.472 166.399 110.724 166.147C111.101 165.895 111.353 165.517 111.73 165.139C112.107 164.761 112.358 164.383 112.61 164.005C112.861 163.627 113.113 163.123 113.364 162.745C112.987 163.249 112.861 163.375 112.861 163.375Z" fill="#D3C013"/>
<path d="M119.148 159.09C118.897 159.342 118.645 159.468 118.394 159.594C118.394 159.594 118.394 159.594 118.268 159.594C118.142 159.594 118.142 159.72 118.017 159.72C117.891 159.846 117.765 159.972 117.64 159.972C117.514 159.972 117.514 160.098 117.388 160.098C117.262 160.098 117.262 160.225 117.137 160.225C117.011 160.225 117.011 160.351 116.885 160.351C116.759 160.729 116.508 161.107 116.382 161.485C116.131 161.863 116.005 162.115 115.753 162.493C115.502 162.745 115.25 163.123 114.999 163.375C114.748 163.627 114.496 163.753 114.37 164.005L117.64 161.737C117.891 161.611 118.142 161.359 118.394 161.107C118.645 160.855 118.771 160.603 119.023 160.351C119.148 160.098 119.4 159.846 119.526 159.468C119.651 159.216 119.777 158.838 119.903 158.46C119.777 158.586 119.526 158.712 119.4 158.838C119.274 158.964 119.274 158.964 119.148 159.09Z" fill="#D3C013"/>
<path d="M126.064 153.798C125.938 153.798 125.938 153.924 125.813 153.924C125.687 154.05 125.561 154.176 125.31 154.302C125.184 154.302 125.184 154.428 125.058 154.428C124.932 154.554 124.932 154.554 124.807 154.68C124.681 154.68 124.681 154.806 124.555 154.806C124.429 154.932 124.304 155.058 124.052 155.184C123.927 155.184 123.927 155.31 123.801 155.31C123.801 155.31 123.801 155.31 123.675 155.31C123.549 155.562 123.549 155.94 123.424 156.192C123.298 156.444 123.172 156.696 123.046 156.948C122.921 157.2 122.795 157.326 122.669 157.578C122.543 157.704 122.543 157.704 122.418 157.83C122.292 157.956 122.292 157.956 122.166 158.082L123.424 157.074L125.561 155.31C126.316 154.68 126.441 154.05 126.693 153.042C126.567 153.294 126.316 153.42 126.064 153.798C126.064 153.672 126.064 153.672 126.064 153.798Z" fill="#D3C013"/>
<path d="M133.734 147.119C133.608 147.245 133.357 147.371 133.231 147.497C133.106 147.623 133.106 147.623 132.98 147.749C132.854 147.876 132.854 147.876 132.728 148.002C132.603 148.128 132.603 148.128 132.477 148.254C132.351 148.38 132.225 148.506 132.1 148.632C131.974 148.758 131.974 148.758 131.848 148.884C131.848 148.884 131.848 148.884 131.722 149.01C131.471 149.262 131.219 149.388 130.968 149.64C130.968 149.892 130.968 150.018 130.968 150.27C130.968 150.396 130.968 150.648 130.842 150.774C130.842 150.9 130.716 151.026 130.716 151.152C130.716 151.278 130.591 151.278 130.591 151.404C130.591 151.404 130.591 151.404 130.465 151.53L132.98 149.262L133.734 148.506C133.86 148.506 133.86 148.38 133.86 148.254C133.86 148.128 133.986 148.002 133.986 147.876C133.986 147.749 133.986 147.623 133.986 147.497C133.986 147.371 133.986 147.119 133.86 146.993C133.86 146.993 133.86 146.993 133.734 146.993C133.86 146.993 133.734 147.119 133.734 147.119Z" fill="#D3C013"/>
<path d="M140.524 140.693C140.398 140.819 140.398 140.819 140.273 140.945C140.147 141.071 140.021 141.197 139.895 141.323C139.77 141.449 139.77 141.449 139.644 141.575C139.644 141.575 139.644 141.575 139.518 141.701C139.267 141.953 139.015 142.205 138.764 142.457L138.638 142.583C138.512 142.709 138.261 142.961 138.135 143.087C138.261 143.213 138.261 143.339 138.387 143.465C138.387 143.591 138.512 143.717 138.512 143.717C138.512 143.843 138.512 143.843 138.512 143.969C138.512 143.969 138.512 143.969 138.512 144.095L140.147 142.583L141.782 140.945C141.782 140.945 141.656 140.945 141.656 140.819C141.656 140.819 141.53 140.693 141.404 140.567C141.279 140.441 141.153 140.441 141.027 140.315C140.901 140.441 140.901 140.441 140.776 140.567C140.65 140.441 140.524 140.567 140.524 140.693Z" fill="#D3C013"/>
<path d="M149.074 133.006C148.949 133.006 148.823 133.132 148.697 133.132C148.571 133.132 148.446 133.132 148.194 133.132C148.069 133.132 147.817 133.132 147.691 133.132C147.566 133.258 147.44 133.384 147.314 133.51C147.188 133.636 147.188 133.636 147.063 133.762L146.937 133.888C146.685 134.14 146.434 134.392 146.308 134.644L146.182 134.77C146.057 135.022 145.805 135.148 145.679 135.401C145.679 135.527 145.554 135.527 145.554 135.653C145.428 135.779 145.428 135.779 145.302 135.905C145.177 136.031 145.177 136.031 145.051 136.157C145.177 136.283 145.428 136.283 145.554 136.283C145.679 136.283 145.805 136.283 145.931 136.409C146.057 136.409 146.182 136.409 146.182 136.409C146.308 136.409 146.308 136.409 146.308 136.283L147.063 135.527L148.572 133.888L149.452 132.88C149.452 132.88 149.452 132.88 149.326 133.006C149.2 132.88 149.074 132.88 149.074 133.006Z" fill="#D3C013"/>
<path d="M156.116 124.816C155.99 124.942 155.739 125.068 155.487 125.194C155.236 125.32 155.11 125.446 154.858 125.446C154.607 125.572 154.356 125.572 154.104 125.698C153.853 125.95 153.727 126.202 153.475 126.454L153.35 126.58C153.224 126.832 152.972 126.958 152.847 127.21L152.721 127.336C152.595 127.462 152.595 127.462 152.469 127.588C152.344 127.714 152.344 127.84 152.218 127.84C152.092 127.966 151.966 128.092 151.841 128.218C151.715 128.344 151.715 128.344 151.589 128.47L151.464 128.596C151.715 128.596 151.966 128.596 152.092 128.47C152.344 128.47 152.469 128.344 152.721 128.344C152.847 128.218 153.098 128.218 153.224 128.092C153.35 127.966 153.475 127.84 153.601 127.84L153.978 127.462L154.607 126.706L156.619 124.312C156.493 124.438 156.493 124.564 156.367 124.564C156.242 124.69 156.116 124.69 156.116 124.816Z" fill="#D3C013"/>
<path d="M163.032 115.743L163.157 115.617C163.157 115.617 163.157 115.491 163.283 115.491L162.906 115.995C162.906 115.869 163.032 115.743 163.032 115.743Z" fill="#D3C013"/>
<path d="M161.774 117.003C161.523 117.255 161.145 117.507 160.768 117.633C160.391 117.885 160.014 118.011 159.637 118.137C159.637 118.263 159.511 118.263 159.511 118.389C159.385 118.515 159.385 118.641 159.259 118.767L159.134 118.893C159.134 119.019 159.008 119.019 159.008 119.145C158.882 119.271 158.756 119.397 158.756 119.523L158.505 119.775C158.379 119.901 158.253 120.027 158.253 120.153L158.002 120.405C157.876 120.531 157.751 120.657 157.751 120.783C157.751 120.909 157.625 120.909 157.625 121.035C158.002 120.909 158.253 120.783 158.631 120.657C158.882 120.531 159.259 120.405 159.511 120.153C159.762 120.027 160.014 119.775 160.265 119.649C160.517 119.397 160.643 119.271 160.894 119.019L163.283 115.743C163.157 115.869 163.032 115.995 162.906 116.121C162.277 116.625 162.026 116.877 161.774 117.003Z" fill="#D3C013"/>
<path d="M168.061 108.056C167.684 108.434 167.432 108.938 166.929 109.316C166.552 109.694 166.049 110.072 165.672 110.45C165.169 110.829 164.666 111.081 164.163 111.333C164.163 111.459 164.037 111.459 164.037 111.585C163.912 111.711 163.912 111.837 163.786 111.963C163.786 111.963 163.786 112.089 163.66 112.089C163.66 112.215 163.535 112.215 163.535 112.341C163.409 112.467 163.409 112.593 163.283 112.719C163.283 112.719 163.283 112.845 163.157 112.845L163.032 112.971C162.906 113.097 162.906 113.223 162.78 113.349L162.529 113.601C162.403 113.727 162.403 113.853 162.277 113.979L162.151 114.105C162.654 113.853 163.032 113.601 163.535 113.349C163.912 113.097 164.289 112.719 164.666 112.467C165.043 112.089 165.295 111.837 165.672 111.459C165.798 111.333 165.798 111.333 165.924 111.207C166.175 110.955 166.301 110.577 166.552 110.324L168.187 107.804C168.187 107.93 168.187 108.056 168.061 108.056Z" fill="#D3C013"/>
<path d="M171.079 102.134C170.576 102.638 170.073 103.268 169.444 103.772C168.816 104.276 168.187 104.78 167.558 105.158C167.558 105.284 167.432 105.284 167.432 105.41C167.432 105.536 167.307 105.662 167.307 105.788C167.307 105.788 167.307 105.788 167.307 105.914C167.307 105.914 167.307 106.04 167.181 106.04C167.181 106.166 167.055 106.292 167.055 106.418V106.544C167.055 106.544 167.055 106.67 166.929 106.67C166.929 106.796 166.804 106.922 166.804 107.048V107.174C166.804 107.174 166.804 107.3 166.678 107.3C166.678 107.426 166.552 107.552 166.552 107.678C166.552 107.678 166.552 107.804 166.427 107.804C167.055 107.426 167.684 107.048 168.187 106.544C168.69 106.166 169.193 105.662 169.696 105.158C170.199 104.654 170.576 104.15 170.953 103.646C171.079 103.394 171.205 103.142 171.33 103.016C171.582 102.638 171.708 102.386 171.833 102.008L172.965 99.7396C172.839 99.9917 172.714 100.244 172.462 100.496C171.959 101 171.582 101.63 171.079 102.134Z" fill="#D3C013"/>
<path d="M173.091 99.1096C173.216 98.8576 173.342 98.7315 173.342 98.4795L172.839 99.6136C172.965 99.4876 172.965 99.3616 173.091 99.1096Z" fill="#D3C013"/>
<path d="M176.737 89.9108C176.611 90.2889 176.486 90.6669 176.36 91.1709C176.486 90.7929 176.611 90.4149 176.737 89.9108Z" fill="#D3C013"/>
<path d="M174.222 95.3293C173.594 96.2113 172.965 96.9674 172.211 97.7235C171.456 98.4795 170.702 99.2356 169.822 99.8656V99.9916C169.822 100.118 169.821 100.118 169.696 100.244V100.37C169.696 100.496 169.57 100.496 169.57 100.622C169.57 100.622 169.57 100.622 169.57 100.748V100.874C169.57 101 169.444 101 169.444 101.126C169.444 101.126 169.444 101.126 169.444 101.252V101.378C169.444 101.504 169.319 101.63 169.319 101.63V101.756C170.073 101.252 170.827 100.622 171.456 99.9916C172.085 99.3616 172.714 98.7315 173.216 97.9755C173.719 97.3454 174.222 96.5894 174.6 95.8333C174.977 95.2033 175.228 94.5732 175.606 93.8172C175.606 93.6911 175.731 93.5651 175.731 93.4391C175.857 93.0611 175.983 92.6831 176.108 92.305C176.234 91.801 176.486 91.2969 176.611 90.7929C176.36 91.2969 176.234 91.801 175.983 92.305C175.228 93.5651 174.725 94.4472 174.222 95.3293Z" fill="#D3C013"/>
<path d="M176.486 88.2727C175.857 89.5328 174.977 90.7929 174.097 92.053C173.091 93.1871 172.085 94.3212 170.827 95.4553V95.5813C170.827 95.7073 170.827 95.7073 170.827 95.8333V95.9593C170.827 96.0853 170.827 96.0853 170.827 96.2113V96.3373C170.827 96.4634 170.827 96.4634 170.827 96.5894V96.7154C170.827 96.8414 170.827 96.8414 170.827 96.9674C170.827 96.9674 170.827 96.9674 170.827 97.0934C171.833 96.2113 172.839 95.3293 173.719 94.3212C174.6 93.3131 175.354 92.305 175.983 91.2969C176.611 90.2889 177.114 89.1548 177.617 88.0207C177.995 86.8866 178.372 85.7525 178.623 84.4924C178.749 83.7363 178.875 82.7282 179 81.8462C178.875 82.6022 178.749 83.3583 178.498 84.1144C177.617 85.6265 177.114 87.0126 176.486 88.2727Z" fill="#D3C013"/>
<path d="M178.623 81.9722C178.749 81.5942 178.749 81.0901 178.749 80.7121C178.749 80.4601 178.749 80.3341 178.749 80.082V80.208C178.749 80.7121 178.623 81.3421 178.623 81.9722Z" fill="#D3C013"/>
<path d="M177.617 67.103C177.743 67.607 177.869 68.2371 177.995 68.7411C177.869 68.3631 177.743 67.733 177.617 67.103Z" fill="#D3C013"/>
<path d="M177.743 80.082C177.114 82.2242 176.234 84.3664 174.977 86.3825C173.719 88.3987 172.211 90.2889 170.45 91.927V92.9351C171.959 91.549 173.342 90.0368 174.474 88.5247C175.606 86.8866 176.486 85.2485 177.114 83.4843C177.743 81.7202 178.246 79.956 178.498 78.0659C178.749 76.3017 178.749 74.4116 178.498 72.5214L178.372 71.8914C178.246 70.7573 178.12 70.2532 177.995 69.3712C177.869 69.1192 177.869 68.7411 177.743 68.3631C178.12 69.8752 178.246 71.5133 178.246 73.0255C178.623 75.6717 178.246 77.9399 177.743 80.082Z" fill="#D3C013"/>
<path d="M177.617 67.103V66.851C177.617 66.851 177.617 66.851 177.617 66.977V67.103Z" fill="#D3C013"/>
<path d="M168.941 89.6588C169.067 89.7848 168.941 89.7848 168.941 89.6588C169.067 89.7848 169.067 89.7848 169.193 89.7848L169.444 90.0368C169.444 90.0368 169.444 90.0368 169.57 90.1628L169.696 90.2889C175.354 84.7444 182.27 71.6394 173.091 57.6522C172.588 57.0222 172.336 56.6442 171.959 56.1401C171.582 55.6361 170.953 55.006 169.947 53.8719C169.57 53.4939 169.193 53.1159 168.816 52.8638C177.743 61.5585 180.258 77.0578 168.941 89.6588Z" fill="#D3C013"/>
<path d="M167.684 52.1078C168.061 52.3598 168.438 52.7378 168.69 52.9899C168.313 52.6118 167.935 52.3598 167.684 52.1078Z" fill="#D3C013"/>
<path d="M159.259 47.5714C160.391 48.0755 161.397 48.8315 162.529 49.4616C163.535 50.2176 164.54 51.0997 165.546 51.9818C167.935 54.376 169.821 57.2742 171.079 60.2985C172.336 63.3227 172.965 66.599 173.091 70.0012C173.216 73.2775 172.588 76.6798 171.456 79.83C170.324 82.9803 168.564 86.0045 166.301 88.6507C166.427 88.6507 166.552 88.6507 166.552 88.6507C166.678 88.6507 166.804 88.6507 166.804 88.6507C166.929 88.6507 166.929 88.6507 167.055 88.6507C167.181 88.6507 167.181 88.6507 167.307 88.7767C169.696 86.1305 171.456 83.2323 172.714 80.082C173.971 76.9318 174.474 73.6555 174.474 70.2532C174.474 66.977 173.845 63.7007 172.588 60.6765C171.33 57.6522 169.57 54.754 167.055 52.3598C166.427 51.7298 165.798 51.0997 165.043 50.5957C164.415 50.0916 163.66 49.5876 162.906 49.0835C162.151 48.5795 161.397 48.2015 160.643 47.8234C160.14 47.5714 159.637 47.3194 159.008 47.0674C158.756 46.9414 158.505 46.8154 158.253 46.8154C158.128 46.8154 158.002 46.6893 158.002 46.6893C157.248 46.4373 156.242 46.1853 155.487 45.9333C155.487 45.9333 155.487 45.9333 155.361 45.9333C154.858 45.8073 154.356 45.6813 153.853 45.5553C154.481 45.6813 154.984 45.8073 155.613 46.0593C156.996 46.5633 158.128 46.9414 159.259 47.5714Z" fill="#D3C013"/>
<path d="M154.104 45.6813C153.601 45.5553 153.098 45.4292 152.595 45.4292C152.469 45.4292 152.469 45.4292 152.344 45.4292C152.344 45.4292 152.344 45.4292 152.469 45.4292C152.847 45.4292 153.475 45.5553 154.104 45.6813Z" fill="#D3C013"/>
<path d="M140.901 45.5553C140.524 45.5553 140.147 45.6813 139.895 45.6813C140.147 45.6813 140.398 45.5553 140.65 45.5553C162.277 42.783 175.983 69.8752 162.277 88.7767C162.403 88.7767 162.529 88.7767 162.654 88.6507C162.78 88.6507 162.906 88.6507 163.032 88.6507C163.032 88.6507 163.032 88.6507 163.157 88.6507C163.283 88.6507 163.409 88.6507 163.409 88.6507C163.409 88.6507 163.409 88.6507 163.535 88.6507C163.66 88.6507 163.786 88.6507 163.912 88.6507C176.863 72.6474 167.558 44.4212 144.422 45.1772H144.045C143.165 45.3032 141.907 45.4292 140.901 45.5553Z" fill="#D3C013"/>
<path d="M133.734 47.3194C133.483 47.4454 133.231 47.4454 132.854 47.5714C132.1 47.8234 131.219 48.2015 130.465 48.4535C131.974 47.9495 133.608 47.6974 135.243 47.5714C137.129 47.4454 139.015 47.6974 140.901 48.2015C142.787 48.7055 144.674 49.4616 146.56 50.5957C148.446 51.7298 150.206 52.9899 151.841 54.754C154.23 57.1482 156.242 60.0464 157.75 63.0707C159.259 66.0949 160.265 69.3712 160.643 72.6474C161.145 75.9237 161.02 79.2 160.391 82.2242C159.762 85.2485 158.631 88.1467 156.87 90.6669C156.996 90.5409 157.248 90.5409 157.373 90.4149C157.373 90.4149 157.373 90.4149 157.499 90.4149C157.625 90.4149 157.75 90.2889 157.876 90.2889C157.876 90.2889 157.876 90.2889 158.002 90.2889C158.128 90.2889 158.379 90.1628 158.505 90.1628C158.505 90.1628 158.505 90.1628 158.631 90.1628C158.756 90.1628 158.882 90.0368 159.008 90.0368C159.008 90.0368 159.008 90.0368 159.134 90.0368C161.02 87.5166 162.277 84.4924 163.032 81.4681C163.786 78.3179 163.912 75.0416 163.535 71.7654C163.157 68.4891 162.277 65.2128 160.894 62.1886C159.511 59.1644 157.499 56.2661 155.11 53.8719C153.475 52.2338 151.841 50.9737 150.08 49.9656C148.32 48.9575 146.56 48.2015 144.674 47.6974C142.787 47.1934 141.027 46.9414 139.141 46.9414C137.381 46.9414 135.746 47.1934 134.111 47.6974C134.111 47.1934 133.986 47.1934 133.734 47.3194Z" fill="#D3C013"/>
<path d="M122.166 52.2338C121.915 52.3598 121.537 52.6118 121.286 52.7378C121.412 52.7378 121.537 52.6118 121.537 52.6118C122.921 51.9818 124.429 51.6037 125.938 51.4777C127.699 51.3517 129.585 51.4777 131.597 51.9818C133.483 52.4858 135.495 53.3679 137.381 54.502C139.267 55.6361 141.279 57.1482 143.039 58.9123C145.428 61.3065 147.566 64.2048 149.2 67.103C150.835 70.1272 151.966 73.2775 152.721 76.3017C153.475 79.452 153.601 82.6022 153.35 85.5005C153.098 88.3987 152.218 91.1709 150.961 93.4391C150.961 93.4391 150.961 93.4391 151.086 93.4391C151.212 93.3131 151.463 93.3131 151.589 93.1871C151.589 93.1871 151.589 93.1871 151.715 93.1871C151.966 93.0611 152.092 92.9351 152.344 92.9351C152.344 92.9351 152.344 92.9351 152.469 92.9351C152.595 92.8091 152.847 92.8091 152.972 92.6831C152.972 92.6831 152.972 92.6831 153.098 92.6831C153.224 92.557 153.475 92.557 153.601 92.431C155.11 90.0368 156.116 87.2646 156.493 84.2404C156.87 81.2161 156.87 78.0659 156.242 74.9156C155.613 71.7654 154.607 68.4891 152.972 65.5909C151.464 62.5666 149.452 59.7944 146.937 57.4002C145.177 55.6361 143.29 54.25 141.404 53.1159C139.518 51.9818 137.506 51.2257 135.62 50.7217C133.734 50.2176 131.722 50.0916 129.962 50.2176C128.327 50.3436 126.819 50.7217 125.435 51.3517C125.31 51.3517 125.184 51.4777 124.932 51.6037C124.807 51.6037 124.807 51.7298 124.681 51.7298C123.927 51.3517 123.046 51.7298 122.166 52.2338Z" fill="#D3C013"/>
<path d="M145.051 96.9674C145.428 96.7154 145.554 96.5894 145.805 96.4634L145.931 96.3373C146.057 96.2113 146.308 96.0853 146.434 95.9593L146.56 95.8333C146.685 95.8333 146.685 95.7073 146.811 95.7073C146.937 95.7073 146.937 95.5813 147.063 95.5813C148.194 93.4391 148.697 90.7929 148.823 88.0207C148.949 85.2485 148.446 82.2242 147.566 79.2C146.685 76.1757 145.428 73.0255 143.668 70.1272C141.907 67.229 139.895 64.4568 137.381 61.9366C135.495 60.0464 133.608 58.5343 131.597 57.2742C129.711 56.0141 127.699 55.258 125.813 54.628C123.927 54.124 122.166 53.8719 120.406 53.9979C118.771 54.1239 117.137 54.628 115.753 55.5101L112.61 57.4002L112.233 57.7782C112.233 57.7782 112.358 57.7782 112.358 57.6522C113.616 56.8962 114.999 56.3921 116.508 56.2661C118.142 56.1401 119.903 56.3921 121.663 56.8962C123.549 57.4002 125.435 58.4083 127.321 59.6684C129.208 60.9285 131.219 62.4406 133.106 64.4568C135.495 66.851 137.632 69.6232 139.518 72.5214C141.279 75.4197 142.662 78.4439 143.668 81.3421C144.674 84.3664 145.177 87.2646 145.302 89.9108C145.428 92.557 144.925 95.0773 144.045 97.2194C144.171 97.0934 144.296 97.0934 144.422 96.9674C144.799 97.0934 144.925 96.9674 145.051 96.9674Z" fill="#D3C013"/>
<path d="M138.261 101.756L138.387 101.63C138.512 101.504 138.764 101.378 138.89 101.252L139.015 101.126C139.141 101 139.141 101 139.267 100.874C139.393 100.748 139.392 100.748 139.518 100.622C139.644 100.496 139.77 100.496 139.895 100.37C140.021 100.37 140.021 100.244 140.147 100.244C140.147 100.244 140.273 100.244 140.273 100.118C140.901 98.2275 141.153 95.9593 140.776 93.3131C140.524 90.7929 139.77 88.0207 138.512 85.1224C137.381 82.2242 135.872 79.326 133.986 76.5537C132.1 73.7815 129.962 71.0093 127.447 68.6151C125.561 66.725 123.549 65.0868 121.663 63.7007C119.777 62.4406 117.891 61.4325 116.131 60.8025C114.37 60.1724 112.736 59.9204 111.227 59.9204C109.969 59.9204 108.712 60.2984 107.706 60.9285C107.58 61.0545 107.455 61.0545 107.329 61.1805L106.197 61.9366L105.191 62.6926L103.808 63.7007C104.688 62.9447 105.946 62.6926 107.329 62.6926C108.712 62.6926 110.221 63.0707 111.981 63.7007C113.616 64.3308 115.502 65.3388 117.388 66.725C119.274 68.1111 121.16 69.7492 123.172 71.6394C125.561 74.0335 127.824 76.8058 129.836 79.578C131.722 82.3502 133.357 85.2485 134.74 88.0207C135.998 90.7929 136.878 93.4391 137.381 95.8333C137.884 98.2275 137.884 100.496 137.381 102.134C137.632 102.134 137.884 102.008 138.261 101.756Z" fill="#D3C013"/>
<path d="M102.299 71.6394C103.808 72.5214 105.443 73.6555 107.203 75.0416C108.963 76.4277 110.85 78.1919 112.861 80.208C115.25 82.6022 117.64 85.2485 119.777 87.8947C121.915 90.5409 123.801 93.1871 125.31 95.7073C126.944 98.2275 128.202 100.622 128.956 102.764C129.836 104.906 130.214 106.67 130.214 108.056L130.339 107.93C130.591 107.804 130.716 107.552 130.968 107.426L131.094 107.3C131.219 107.174 131.219 107.174 131.345 107.048C131.471 106.922 131.597 106.922 131.597 106.796C131.722 106.67 131.848 106.544 131.974 106.544C132.1 106.418 132.1 106.418 132.225 106.292L132.351 106.166C132.603 105.914 132.854 105.788 133.106 105.536C133.357 104.024 133.106 102.008 132.351 99.7396C131.597 97.4714 130.591 94.9512 129.082 92.305C127.573 89.6588 125.813 86.8866 123.801 84.2404C121.789 81.5942 119.526 78.9479 117.011 76.4277C114.999 74.4116 113.113 72.7734 111.227 71.3873C109.341 70.0012 107.706 68.8671 106.071 68.1111C104.563 67.355 103.054 66.851 101.922 66.725C100.79 66.599 99.9102 66.851 99.1558 67.355L99.0301 67.481L98.4014 67.9851L97.8984 68.3631L95.5094 70.3793C96.1381 69.8752 96.8925 69.7492 98.0242 70.0012C99.4073 70.2532 100.79 70.7573 102.299 71.6394Z" fill="#D3C013"/>
<path d="M123.801 113.853C123.927 113.727 124.052 113.601 124.178 113.475C124.304 113.349 124.304 113.349 124.429 113.223L124.555 113.097C124.807 112.845 125.058 112.593 125.31 112.467C125.31 112.467 125.31 112.467 125.435 112.467C125.687 112.215 125.938 112.089 126.064 111.837C125.813 110.703 125.184 109.064 124.052 107.174C122.921 105.284 121.537 103.016 119.777 100.748C118.017 98.3535 116.005 95.8333 113.742 93.3131C111.478 90.7929 109.215 88.1467 106.7 85.7525C104.688 83.7363 102.802 81.9722 101.042 80.4601C99.2816 78.9479 97.7727 77.6878 96.3895 76.8058C95.0064 75.7977 93.8748 75.1676 92.9946 74.9156C92.1144 74.5376 91.36 74.5376 91.1085 74.9156L90.9827 75.0416L88.4679 77.0578L87.7135 77.8139C87.965 77.6878 88.4679 77.8139 89.2224 78.1919C89.9768 78.6959 91.1085 79.326 92.3659 80.4601C93.6233 81.4681 95.1321 82.7283 96.8925 84.3664C97.2697 84.7444 97.6469 85.1224 98.0242 85.5005C99.4073 86.7606 100.79 88.1467 102.425 89.7848C103.305 90.6669 104.06 91.549 104.94 92.431C106.449 94.0692 108.083 95.7073 109.592 97.3454C110.095 97.8495 110.598 98.4795 111.101 98.9836C111.227 99.1096 111.227 99.1096 111.353 99.2356C111.981 99.9916 112.61 100.622 113.239 101.378C114.245 102.512 115.125 103.52 116.005 104.528C116.256 104.906 116.508 105.158 116.885 105.536C117.262 106.04 117.765 106.544 118.143 107.048C119.148 108.308 120.029 109.442 120.783 110.576C121.286 111.333 121.789 111.963 122.166 112.593C122.669 113.475 123.046 114.105 123.298 114.735L123.424 114.609C123.549 114.483 123.549 114.483 123.675 114.357C123.675 113.979 123.801 113.979 123.801 113.853Z" fill="#D3C013"/>
<path d="M116.634 120.909L116.759 120.783C117.011 120.531 117.262 120.279 117.514 120.027C117.64 119.901 117.765 119.775 117.891 119.649C118.017 119.523 118.017 119.397 118.143 119.397L118.268 119.271C118.394 119.145 118.394 119.145 118.52 119.019L118.897 118.641C113.49 112.845 85.073 84.2404 82.9354 82.4762L82.8097 82.6022C81.9295 83.4843 80.9236 84.4924 80.1691 85.2485C80.0434 85.3745 80.0434 85.3745 79.9177 85.5005C79.7919 85.6265 79.7919 85.6265 79.6662 85.7525L79.5404 85.8785C79.4147 86.0045 79.6662 86.5086 80.1691 87.1386C80.6721 87.8947 81.4265 88.9028 82.5582 90.0368C83.6898 91.2969 84.9472 92.6831 86.5818 94.4472C88.2165 96.0853 89.9768 97.9755 91.9887 99.9916C94.3777 102.386 96.8925 104.906 99.4073 107.174C101.796 109.442 104.185 111.711 106.449 113.601C108.586 115.617 110.598 117.255 112.233 118.641C113.867 120.027 115.25 121.035 116.131 121.539C116.256 121.413 116.382 121.287 116.508 121.161C116.508 121.035 116.634 120.909 116.634 120.909Z" fill="#D3C013"/>
<path d="M101.168 119.145C98.7786 117.381 96.2638 115.365 93.749 113.097C93.1203 112.593 92.6174 112.089 91.9887 111.585C90.4798 110.198 88.9709 108.812 87.462 107.3C87.0848 106.922 86.5819 106.418 86.2046 106.04C84.1928 104.024 82.4324 102.134 80.9236 100.37C80.2949 99.6136 79.7919 98.9836 79.1632 98.3535C78.4088 97.4714 77.7801 96.5894 77.1514 95.7073C76.8999 95.2033 76.5227 94.8252 76.2712 94.4472C75.7682 93.6911 75.391 92.9351 75.1395 92.305C74.8881 91.675 74.7623 91.1709 74.8881 90.7929C74.8881 90.6669 75.0138 90.6669 75.0138 90.5409L73.002 92.8091L72.499 93.4391L71.8703 94.0692C71.8703 94.0692 71.8703 94.1952 71.7446 94.1952C71.3674 94.6992 71.3674 95.4553 71.6188 96.3374C71.8703 97.3454 72.499 98.6055 73.2534 100.118C74.1336 101.504 75.2653 103.142 76.7742 105.032C78.283 106.796 79.9176 108.686 81.9295 110.703C84.3185 113.097 86.9591 115.491 89.5996 117.633C92.2401 119.775 94.7549 121.791 97.2697 123.43C99.7845 125.068 102.048 126.454 104.06 127.336C106.071 128.344 107.832 128.848 109.089 128.974C109.341 128.722 109.466 128.47 109.718 128.218C109.969 127.966 110.221 127.714 110.347 127.462L110.472 127.336C110.598 127.21 110.598 127.21 110.724 127.084C110.85 126.958 110.975 126.832 110.975 126.706C111.101 126.58 111.227 126.454 111.227 126.328C111.353 126.202 111.353 126.076 111.478 126.076L111.604 125.95C111.227 125.824 110.724 125.698 110.221 125.446C109.341 125.068 108.335 124.564 107.077 123.808C106.952 123.682 106.7 123.556 106.574 123.556C105.317 122.799 104.06 121.917 102.677 120.909C102.551 120.153 101.796 119.649 101.168 119.145Z" fill="#D3C013"/>
<path d="M76.7742 117.003C74.7623 114.987 73.1277 113.097 71.7446 111.207C70.3614 109.316 69.2298 107.678 68.4753 106.04C67.7209 104.528 67.2179 103.016 67.0922 101.882C66.9665 100.748 67.2179 99.7396 67.7209 99.1096C67.7209 99.1096 67.7209 98.9836 67.8466 98.9836L67.5952 99.2356L65.0804 102.386L64.7032 102.764C64.0745 103.646 63.823 104.654 63.823 105.914C63.823 107.174 64.2002 108.686 64.9546 110.45C65.7091 112.089 66.715 113.853 67.9724 115.743C69.3555 117.633 70.9901 119.523 72.8762 121.539C75.2653 123.934 78.0316 126.202 80.6721 128.218C83.4384 130.234 86.2046 131.872 88.9709 133.258C91.7372 134.644 94.252 135.527 96.641 136.157C99.0301 136.661 101.168 136.787 102.802 136.409C103.054 136.157 103.179 135.905 103.431 135.653L103.557 135.527C103.682 135.401 103.682 135.4 103.808 135.274C103.934 135.148 104.06 135.022 104.06 134.896C104.185 134.77 104.185 134.644 104.311 134.518C104.437 134.392 104.437 134.266 104.563 134.266L104.688 134.14C104.814 133.888 105.066 133.762 105.191 133.51C105.191 133.51 105.191 133.384 105.317 133.384C103.808 133.636 101.796 133.258 99.533 132.628C97.2697 131.872 94.7549 130.738 92.2401 129.352C89.5996 127.84 86.9591 126.076 84.1928 124.06C81.9295 121.665 79.289 119.397 76.7742 117.003Z" fill="#D3C013"/>
<path d="M68.3496 128.092C66.4635 126.202 64.8289 124.186 63.5715 122.295C62.3141 120.405 61.3082 118.515 60.6795 116.751C60.0508 114.987 59.7993 113.349 59.7993 111.837C59.7993 110.324 60.1765 109.064 60.931 107.93L58.9191 110.829L58.2904 111.711C58.2904 111.837 58.1647 111.963 58.1647 111.963C57.536 113.097 57.1588 114.483 57.033 115.869C56.9073 117.507 57.1588 119.145 57.7875 120.909C58.4162 122.673 59.2963 124.564 60.5537 126.454C61.8111 128.344 63.32 130.234 65.2061 132.124C67.5952 134.518 70.3614 136.787 73.2534 138.551C76.1455 140.315 79.1632 141.827 82.0552 142.835C84.9472 143.843 87.8392 144.473 90.6055 144.599C93.2461 144.725 95.7608 144.347 97.7727 143.465C97.7727 143.339 97.8984 143.339 97.8984 143.213C98.0242 143.087 98.0242 142.961 98.1499 142.835C98.1499 142.835 98.1499 142.709 98.2756 142.709C98.2756 142.583 98.4014 142.583 98.4014 142.457C98.5271 142.331 98.5271 142.205 98.6529 142.079L98.7786 141.953C98.7786 141.827 98.9043 141.827 98.9043 141.701C99.0301 141.575 99.0301 141.449 99.1558 141.323L99.4073 141.071C99.533 140.945 99.6588 140.819 99.6588 140.693L99.7845 140.567C97.8984 141.323 95.5094 141.449 92.9946 141.197C90.4798 140.945 87.7135 140.189 84.8215 139.055C81.9295 137.921 79.0375 136.409 76.2712 134.518C73.5049 132.628 70.7387 130.486 68.3496 128.092Z" fill="#D3C013"/>
<path d="M93.749 150.27C93.8747 150.144 93.8747 150.018 94.0005 149.892C94.0005 149.892 94.0005 149.892 94.0005 149.766C94.0005 149.64 94.1262 149.64 94.1262 149.514C94.252 149.388 94.252 149.262 94.3777 149.136C94.3777 149.136 94.3777 149.136 94.3777 149.01C94.3777 148.884 94.5034 148.884 94.5034 148.758C94.6292 148.632 94.6292 148.506 94.7549 148.38V148.254C94.7549 148.128 94.8807 148.128 94.8807 148.002C95.0064 147.876 95.0064 147.749 95.1321 147.623C95.1321 147.623 95.1321 147.497 95.2579 147.497C92.9946 148.632 90.4798 149.262 87.7135 149.388C84.9472 149.514 81.9295 149.136 78.9117 148.254C75.894 147.371 72.7505 146.111 69.8585 144.347C66.9665 142.583 64.2002 140.567 61.6854 138.047C59.7993 136.157 58.4162 134.266 57.1588 132.376C56.0271 130.486 55.1469 128.596 54.5182 126.706C54.0153 124.816 53.7638 123.052 53.8895 121.287C54.0153 119.649 54.3925 118.011 55.2727 116.625V116.751L53.3866 120.027L53.2608 120.279C53.2608 120.279 53.2608 120.279 53.2608 120.405C52.5064 121.917 52.1292 123.556 52.0034 125.32C51.8777 127.084 52.1292 128.974 52.6321 130.864C53.1351 132.754 54.0153 134.644 55.1469 136.535C56.2786 138.425 57.7875 140.315 59.5478 142.079C61.9369 144.473 64.7032 146.615 67.7209 148.254C70.7387 149.892 73.7564 151.152 76.8999 151.908C80.0434 152.664 83.0611 152.916 85.9532 152.664C88.8452 152.412 91.4857 151.656 93.8747 150.396C93.6233 150.396 93.6233 150.27 93.749 150.27Z" fill="#D3C013"/>
<path d="M50.6203 125.446L49.4887 128.092L49.1114 128.722C48.9857 128.974 48.9857 129.1 48.86 129.352C48.357 130.864 47.9798 132.502 47.854 134.14C47.7283 136.031 47.9798 137.921 48.357 139.811C48.86 141.701 49.6144 143.717 50.7461 145.481C51.8777 147.371 53.2608 149.136 54.8955 150.9C57.2845 153.294 60.1765 155.31 63.1943 156.822C66.212 158.334 69.4813 159.342 72.6248 159.846C75.894 160.351 79.0375 160.351 82.181 159.72C85.1987 159.09 88.0907 158.082 90.6055 156.318V156.192C90.6055 156.066 90.7313 155.94 90.7313 155.814C90.7313 155.814 90.7313 155.688 90.857 155.562C90.857 155.436 90.9827 155.31 90.9827 155.184C90.9827 155.058 90.9828 155.058 91.1085 154.932C91.1085 154.806 91.2342 154.68 91.2342 154.554C91.2342 154.428 91.36 154.428 91.36 154.302C91.36 154.176 91.4857 154.05 91.4857 153.924C91.4857 153.924 91.4857 153.924 91.4857 153.798C89.0966 155.31 86.2046 156.318 83.3126 156.822C80.2949 157.326 77.1514 157.2 74.0079 156.57C70.8644 155.94 67.5952 154.932 64.7032 153.294C61.6854 151.782 58.9191 149.766 56.5301 147.245C54.7697 145.481 53.3866 143.591 52.2549 141.701C51.1233 139.811 50.3688 137.921 49.8659 135.905C49.3629 134.014 49.2372 132.124 49.3629 130.234C49.4887 128.722 49.8659 127.084 50.6203 125.446C50.6203 125.32 50.6203 125.32 50.6203 125.32V125.446Z" fill="#D3C013"/>
<path d="M47.0996 134.14C46.8481 135.148 46.4709 136.409 46.2194 137.543C46.2194 137.669 46.0937 137.795 46.0937 137.921C46.0937 138.047 46.0937 138.173 45.9679 138.173C45.8422 138.677 45.7165 139.307 45.7165 139.811C43.2017 159.09 68.9783 175.598 88.8452 161.485C88.8452 161.359 88.8452 161.233 88.9709 161.107V160.981C88.9709 160.855 89.0966 160.603 89.0966 160.477C89.0966 160.351 89.2224 160.225 89.2224 160.098V159.972C89.2224 159.846 89.3481 159.72 89.3481 159.594C88.9709 159.846 88.3422 160.224 87.965 160.477C70.6129 171.313 41.5671 156.444 47.0996 134.14Z" fill="#D3C013"/>
<path d="M51.8777 164.383C54.2668 166.777 57.1588 168.667 60.1765 169.927C63.1943 171.187 66.4635 171.943 69.8585 172.069C73.1277 172.195 76.5227 171.691 79.6662 170.683C82.8097 169.549 85.8274 167.911 88.4679 165.643C88.4679 165.517 88.4679 165.517 88.4679 165.391V165.265C88.4679 165.139 88.4679 165.139 88.4679 165.013V164.887C88.4679 164.761 88.4679 164.761 88.4679 164.635V164.509C88.4679 164.383 88.4679 164.257 88.4679 164.131C72.3733 176.984 44.3333 167.533 45.0878 144.347V144.473L44.962 145.607C44.962 146.741 44.962 148.254 44.962 149.388C45.0878 150.774 45.2135 152.034 45.5907 153.42C45.9679 154.806 46.3452 156.066 46.9739 157.326C47.4768 158.586 48.2313 159.846 48.9857 160.981C49.8659 162.115 50.746 163.249 51.8777 164.383Z" fill="#D3C013"/>
<path d="M70.8644 175.976C74.1336 175.976 77.4029 175.346 80.5463 174.086C83.6898 172.826 86.5819 170.935 89.2224 168.541C89.2224 168.541 89.2224 168.415 89.0966 168.415C89.0966 168.415 89.0966 168.415 89.0966 168.289C89.0966 168.289 89.0966 168.163 88.9709 168.163C88.9709 168.163 88.9709 168.163 88.9709 168.037V167.911C88.9709 167.911 88.9709 167.911 88.9709 167.785V167.533C74.2594 180.134 53.0094 175.094 46.7224 157.578C46.7224 157.578 46.7224 157.578 46.7224 157.452V157.578C47.0996 158.838 47.854 160.477 48.357 161.737C48.7342 162.367 49.1114 163.249 49.4887 164.005C49.7401 164.383 49.9916 164.887 50.2431 165.265C50.4946 165.643 50.8718 166.147 51.1233 166.525C51.3748 166.903 51.752 167.281 52.1292 167.659C52.5064 168.037 52.7579 168.415 53.1351 168.793C55.5242 171.187 58.4162 173.078 61.4339 174.212C64.3259 175.346 67.5952 175.976 70.8644 175.976Z" fill="#D3C013"/>
<path d="M84.6958 175.346C86.9591 174.086 89.0967 172.447 91.1085 170.431C90.9827 170.431 90.9827 170.431 90.857 170.305L90.7313 170.179C90.6055 170.179 90.6055 170.053 90.4798 170.053L90.354 169.927C80.5463 179.378 67.3437 180.26 56.6558 172.447C56.6558 172.447 56.5301 172.447 56.5301 172.321L56.7816 172.447L57.9132 173.33L58.039 173.456C58.1647 173.582 58.1647 173.582 58.2904 173.582C58.9191 174.086 59.2964 174.338 59.925 174.59C60.428 174.842 61.1824 175.22 62.3141 175.976H62.4398L62.9428 176.228C65.2061 177.236 67.7209 177.992 70.11 178.244C72.6247 178.496 75.1395 178.37 77.6543 177.992C80.0434 177.488 82.4324 176.606 84.6958 175.346Z" fill="#D3C013"/>
<path d="M94.3777 170.935C94.252 170.935 94.1262 170.935 94.0005 170.935C94.0005 170.935 94.0005 170.935 93.8748 170.935C93.749 170.935 93.6233 170.935 93.4975 170.935C93.3718 170.935 93.3718 170.935 93.2461 170.935C93.1203 170.935 93.1203 170.935 92.9946 170.935C91.6114 172.573 89.9768 173.834 88.3422 174.968C86.7076 176.102 84.9472 176.984 83.0611 177.614C81.3008 178.244 79.4147 178.748 77.5286 178.874C75.7682 179 74.1336 179 72.3733 178.874C72.2475 178.874 71.9961 178.874 71.8703 178.748H72.2475C73.1277 178.874 73.5049 178.874 74.2594 179C74.7623 179 75.5168 179 76.7742 179C77.0256 179 77.2771 179 77.5286 179C78.1573 179 78.786 179 79.289 178.874C87.462 178.37 92.6174 172.826 94.3777 170.935Z" fill="#D3C013"/>
<path d="M83.8156 178.496C83.9413 178.496 83.9413 178.496 83.8156 178.496C84.3185 178.37 84.8215 178.244 85.3245 178.118C85.4502 178.118 85.5759 178.118 85.5759 177.992C85.073 178.244 84.4443 178.37 83.8156 178.496Z" fill="#D3C013"/>
<path d="M94.0005 174.716C94.8807 174.086 95.7608 173.456 96.5153 172.699C97.2697 171.943 98.0242 171.061 98.7786 170.179C98.6529 170.179 98.5271 170.305 98.2756 170.305C98.2756 170.305 98.2756 170.305 98.1499 170.305C98.0242 170.305 97.8984 170.305 97.7727 170.431C97.7727 170.431 97.7727 170.431 97.6469 170.431C97.6469 170.431 97.6469 170.431 97.5212 170.431C97.3955 170.431 97.2697 170.431 97.144 170.557C97.144 170.557 97.144 170.557 97.0182 170.557C96.8925 170.557 96.7668 170.557 96.641 170.683C95.7608 171.817 94.8807 172.7 93.8748 173.582C92.8688 174.464 91.8629 175.22 90.7313 175.85C89.5996 176.48 88.4679 176.984 87.3363 177.488C86.7076 177.74 86.2046 177.866 85.5759 178.118C86.5819 177.866 87.5878 177.614 88.3422 177.488C88.4679 177.488 88.4679 177.488 88.5937 177.362H88.7194C89.5996 177.11 90.354 176.732 91.2342 176.354C92.2401 175.85 93.1203 175.346 94.0005 174.716Z" fill="#D3C013"/>
</g>
<defs>
<filter id="filter0_f_47_11" x="0.000488281" y="0" width="188" height="188" filterUnits="userSpaceOnUse" color-interpolation-filters="sRGB">
<feFlood flood-opacity="0" result="BackgroundImageFix"/>
<feBlend mode="normal" in="SourceGraphic" in2="BackgroundImageFix" result="shape"/>
<feGaussianBlur stdDeviation="4.5" result="effect1_foregroundBlur_47_11"/>
</filter>
</defs>
</svg>
