<svg width="85" height="85" viewBox="0 0 85 85" fill="none" xmlns="http://www.w3.org/2000/svg">
<path d="M1.48963 33.8056C1.48963 33.627 1.54919 33.389 1.54919 33.2104C1.54919 33.4485 1.54919 33.627 1.48963 33.8056Z" fill="#191E2B"/>
<path d="M5.48052 21.5451L4.88486 22.6164C4.88486 22.6759 4.82529 22.6759 4.82529 22.7354C4.76573 22.8545 4.70616 22.9735 4.6466 23.0925C4.70616 23.033 4.70616 22.914 4.76573 22.8545C4.6466 23.033 4.58703 23.2116 4.52747 23.3901L4.17007 24.1638C4.22964 24.1043 4.22964 24.0448 4.28921 23.9853C3.87225 24.878 3.45529 25.8303 3.15746 26.8421C2.14485 30.8297 1.72789 35.115 1.60876 42.4355C2.32354 28.8657 4.22964 24.1638 4.88486 22.6164C5.06356 22.2593 5.30182 21.9022 5.48052 21.5451Z" fill="#191E2B"/>
<path d="M1.1918 32.3772C1.07267 32.9128 0.953537 33.4485 0.834406 33.9246L0.77484 34.2222C0.536578 35.7101 1.0131 38.805 1.60876 42.4355C1.54919 42.1379 1.54919 41.8404 1.48963 41.4833C0.834405 35.5316 0.953537 33.8056 1.1918 32.3772Z" fill="#191E2B"/>
<path d="M0.357881 36.7814C0.298316 37.2576 0.23875 37.8527 0.179185 38.2693C0.179185 38.3289 0.179185 38.3884 1.66832 42.4355C0.417447 37.7337 0.417447 37.2576 0.417447 36.6624C0.357881 36.6624 0.357881 36.7219 0.357881 36.7814Z" fill="#191E2B"/>
<path d="M82.5583 56.8386C82.6179 56.7196 82.6179 56.6601 82.6774 56.541C82.9157 55.7673 83.2135 54.8746 83.4518 54.1008C83.69 53.3866 83.9283 52.3748 84.107 51.6011C81.7244 61.4214 76.3635 69.7538 68.1434 76.4792L70.4665 74.5746C70.7048 74.3366 70.943 74.158 71.1813 73.9199C71.8961 73.2057 72.73 72.3725 73.5639 71.5393C74.0404 71.0036 74.6361 70.3489 75.4104 69.4562C75.7678 68.98 76.1848 68.4444 76.6017 67.9087C79.997 63.2069 81.3074 59.993 82.5583 56.8386Z" fill="#191E2B"/>
<path d="M0.0600538 40.2929C0.0600538 40.3524 0.000488281 40.4119 0.000488281 40.4715C0.000488281 40.8881 0.000488281 41.1857 0.000488281 41.1857C0.000488281 41.4237 0.000488281 41.7213 0.000488281 42.0189C0.000488281 41.5428 0.0600538 41.4833 0.357881 41.3047C0.893971 41.4237 0.893971 41.4237 1.72789 42.376C0.536578 40.4119 0.298316 40.3524 0.0600538 40.2929Z" fill="#191E2B"/>
<path d="M58.0769 82.0738C76.4826 74.277 83.5114 54.7555 84.7027 47.8516C84.7027 47.792 84.7027 47.792 84.7027 47.7325C84.7622 47.3754 84.8218 46.8993 84.8218 46.5422L84.8814 45.828C84.8814 45.828 84.8814 45.828 84.8814 45.7685C84.524 49.8156 76.2444 77.7885 50.8099 84.0973C51.1673 84.0378 51.5247 83.9783 51.8821 83.9188C53.669 83.4426 55.9921 82.7284 57.7195 82.1333C57.8982 82.1333 57.9577 82.0738 58.0769 82.0738Z" fill="#191E2B"/>
<path d="M0.298316 43.6259C0.655709 42.6736 0.893971 42.6141 1.66832 42.4355C0.0600536 41.7213 0.0600538 43.2092 0.000488281 44.4591C0.000488281 44.9352 0.0600538 45.5304 0.119619 45.947V46.4232C0.0600538 45.7685 0.000488281 44.3996 0.298316 43.6259Z" fill="#191E2B"/>
<path d="M85.0005 43.3878C85.0005 43.2092 85.0005 43.0902 85.0005 42.9117V42.7926C85.0005 42.6141 85.0005 42.4355 85.0005 42.257C85.0005 42.0784 85.0005 41.9594 85.0005 41.7808C84.9409 44.9947 67.4287 91.1798 31.868 83.7402C32.8807 83.9783 34.2507 84.2164 35.2037 84.4544C36.5142 84.633 38.2416 84.8115 39.552 84.9901C71.4791 85.7043 84.5835 47.6135 85.0005 43.3878Z" fill="#191E2B"/>
<path d="M0.655709 50.3513C0.655709 50.4108 0.715274 50.5298 0.715274 50.5893C-0.178208 45.4114 1.13223 43.2688 1.60876 42.4355C0.000488123 43.9234 0.0600538 46.4827 0.655709 50.3513Z" fill="#191E2B"/>
<path d="M21.5632 79.5145C57.779 98.2623 83.3326 45.7685 84.9409 39.4597C84.9409 39.4002 84.9409 39.4002 84.9409 39.3406V39.0431C84.9409 38.9835 84.9409 38.9835 84.9409 38.924C84.9409 38.6264 84.8813 38.2098 84.8218 37.9122C84.8218 37.8527 84.8218 37.8527 84.8218 37.7932C79.1631 45.2328 76.0657 54.2794 69.99 61.4809C67.0117 64.9924 60.0425 73.2057 50.6907 78.0266C31.9872 87.6683 20.1336 79.0979 15.011 74.8722C15.1897 74.9912 15.3684 75.1698 15.5471 75.2888L16.381 76.003C17.9297 77.1339 20.0145 78.5027 21.6228 79.5145C21.5632 79.5145 21.5632 79.5145 21.5632 79.5145Z" fill="#191E2B"/>
<path d="M1.07267 52.2558V52.1963C1.07267 52.2558 1.13223 52.3153 1.13223 52.3748C1.25136 52.851 1.43006 53.4461 1.54919 53.9223C1.78745 54.8745 2.20441 56.1244 2.56181 57.0767C2.80007 57.6123 3.03833 58.386 3.27659 58.9812C3.57442 59.6359 3.99138 60.5287 4.28921 61.1833C4.58703 61.838 5.06356 62.7308 5.42095 63.3855C5.83791 64.1592 6.43356 65.0519 6.96965 65.8852C12.8071 74.3961 22.2184 81.062 32.7615 80.1692C57.7195 77.9671 74.8148 49.7561 81.3074 39.1026C83.5113 35.4125 83.5113 35.4125 84.4048 35.234V35.1745C84.2857 34.5793 84.1666 33.8651 84.0474 33.2699V33.2104C83.9879 33.0319 83.69 32.8533 83.5113 32.7343C82.5583 33.2104 81.9031 34.1627 78.5674 39.2811C69.9304 52.4344 60.0425 65.6471 45.9851 73.3843C14.1771 90.7037 -2.263 56.8981 1.60876 42.4355C0.536578 45.2328 0.417447 48.6848 1.07267 52.2558Z" fill="#191E2B"/>
<path d="M74.9339 37.5551C80.5926 29.5799 81.9626 27.6158 83.2135 30.1751V30.1155C83.0944 29.6989 82.9157 29.2823 82.7966 28.8657C82.6774 28.5681 82.6179 28.2705 82.4987 27.9729C80.8309 24.4019 78.5078 27.4968 73.0278 34.9959C66.9521 43.2688 59.3873 53.5057 48.3081 62.2546C15.6067 87.9659 -0.535601 60.5287 1.66832 42.495C-2.79909 62.9093 25.7924 107.071 74.9339 37.5551Z" fill="#191E2B"/>
<path d="M68.5604 32.8533C75.7083 23.5092 78.3887 19.9977 81.0692 24.64C81.0692 24.5805 81.0096 24.5805 81.0096 24.5209C80.6522 23.7472 80.1161 22.795 79.7587 22.0212C77.6739 18.3907 75.1722 19.8786 72.8491 21.9617C63.0804 30.7702 56.6473 42.4355 47.1168 51.4226C16.4406 80.3478 1.1918 60.9453 1.60876 42.4355C-0.118643 61.3024 20.8484 94.9889 68.5604 32.8533Z" fill="#191E2B"/>
<path d="M62.6634 25.6518C69.8113 16.7838 73.6235 13.5698 77.4952 18.3312C76.8996 17.498 76.1252 16.4862 75.47 15.6529C75.1126 15.2363 74.7552 14.8197 74.3978 14.4031C71.0026 10.713 69.2156 12.7961 47.2955 37.6147C15.6067 73.6224 4.40834 57.3743 2.02572 45.6494C4.05094 56.3029 14.2962 86.0019 62.6634 25.6518Z" fill="#191E2B"/>
<path d="M1.66832 42.9117C1.72789 43.8044 1.90659 44.6972 2.08528 45.709C1.84702 44.4591 1.72789 43.4473 1.66832 42.9117Z" fill="#191E2B"/>
<path d="M1.60876 42.4355C1.60876 42.4355 1.60876 42.6141 1.66832 42.9117C1.66832 42.7331 1.60876 42.6141 1.60876 42.4355Z" fill="#191E2B"/>
<path d="M48.6655 27.3182C60.5191 12.5581 65.9991 7.02299 71.8961 11.8439C71.8365 11.7843 71.8365 11.7843 71.7769 11.7248C70.943 10.9511 69.8708 10.0584 69.0965 9.34415C69.0965 9.34415 69.0369 9.34415 69.0369 9.28463C63.4973 5.05893 57.7195 9.10608 44.2577 26.4255C9.11401 71.5988 2.56181 47.673 1.60876 42.4355C2.08528 46.2446 7.56531 78.3837 48.6655 27.3182Z" fill="#191E2B"/>
<path d="M39.1946 24.2829C51.6438 7.61816 58.0769 2.97584 64.4504 6.13024C64.2121 6.0112 64.0334 5.89217 63.8547 5.77314L63.676 5.6541C63.5569 5.59459 63.3782 5.47555 63.2591 5.41604L61.4125 4.46376C61.1743 4.34473 60.936 4.2257 60.6978 4.10666C52.0607 0.357101 41.8155 14.4626 34.9654 23.8663C12.7475 54.3984 4.58703 50.8274 1.60876 42.4355C3.51485 49.5775 10.901 62.1356 39.1946 24.2829Z" fill="#191E2B"/>
<path d="M29.4854 23.4496C39.7903 8.86801 46.6403 0.119034 55.2177 1.96406C54.9199 1.90454 54.6221 1.78551 54.3242 1.72599C53.2521 1.4284 52.0608 1.13082 51.1077 0.892753C42.5898 -0.357101 36.0376 8.45139 26.1498 22.914C19.5975 32.4962 7.38661 50.2918 1.60876 42.4355C7.38661 54.7555 24.0054 31.1868 29.4854 23.4496Z" fill="#191E2B"/>
<path d="M21.9206 22.3783C32.5828 5.95169 37.4672 0.357101 44.7938 0.0595169C44.6746 0.0595169 44.4959 0.0595169 44.3768 0.0595169L42.5898 0L40.8624 0.0595169C40.6837 0.0595169 40.4455 0.0595169 40.2668 0.0595169C32.5233 0.714202 26.1497 10.9511 18.168 23.9258C12.5092 33.0319 6.07617 43.3878 1.60876 42.4355C6.13574 46.7207 15.6662 32.0796 21.9206 22.3783Z" fill="#191E2B"/>
<path d="M15.1301 23.4496C23.7076 8.33236 27.8772 2.61874 34.1911 0.833236C33.1189 1.0713 31.7489 1.4284 30.5576 1.72599C30.3193 1.78551 30.0811 1.84502 29.8428 1.90454C23.4693 4.34473 18.8232 12.6176 11.3179 26.9016C6.01661 37.0195 3.93181 40.3524 1.60876 42.4355C5.00399 41.2452 9.23315 33.8056 15.1301 23.4496Z" fill="#191E2B"/>
<path d="M24.3032 4.10666C24.1841 4.16618 24.065 4.2257 23.9458 4.28521L22.2184 5.11845L21.2058 5.71362C21.0271 5.83265 20.8484 5.95169 20.6697 6.0112C17.6319 7.97526 15.3684 11.4868 12.7475 16.5457C8.39923 24.878 5.42095 33.8056 1.66832 42.4355C3.33616 39.7573 5.59965 34.8174 8.45879 28.5681C16.0832 12.0819 19.3593 6.96347 24.3032 4.10666Z" fill="#191E2B"/>
<path d="M16.0236 9.22511C15.9045 9.28463 15.8449 9.40366 15.7258 9.46318C15.6662 9.5227 15.6067 9.58222 15.5471 9.64173C15.4875 9.70125 15.3684 9.76077 15.3088 9.82028C14.594 10.475 13.8197 11.1297 13.1645 11.7248C9.35228 15.4149 5.48052 25.7708 1.60876 42.4355C9.23314 17.1409 12.7475 12.2605 16.0236 9.22511Z" fill="#191E2B"/>
<path d="M9.11401 16.1886C8.63749 16.7838 8.16096 17.498 7.68444 18.0336C7.62487 18.1526 7.50574 18.2717 7.44618 18.3907C4.88486 22.3783 2.9192 30.4726 1.60876 42.4355C2.7405 34.9959 5.18269 21.7237 9.53097 15.6529C9.41184 15.8315 9.23314 16.01 9.11401 16.1886Z" fill="#191E2B"/>
<path d="M1.60876 33.0319C1.72789 32.0201 1.90658 31.0678 2.14485 30.1155C2.44267 28.3895 2.50224 28.211 2.9192 26.9016C2.9192 26.9611 2.85963 26.9611 2.85963 27.0207C2.62137 27.6753 2.32354 28.5086 2.08528 29.1633C1.60876 30.7107 1.48963 32.5557 1.43006 34.6388C1.43006 34.5198 1.43006 34.4603 1.48963 34.3412C1.3705 35.4125 1.31093 36.5434 1.31093 37.6147C1.3705 39.3406 1.43006 39.5787 1.60876 42.3165C1.43006 38.0313 1.48963 36.0077 1.60876 33.0319ZM1.48963 33.8056C1.48963 33.627 1.54919 33.389 1.54919 33.2104C1.54919 33.4485 1.54919 33.627 1.48963 33.8056Z" fill="#191E2B"/>
</svg>
